<svg id="Capa_1" enable-background="new 0 0 512 512" height="512" viewBox="0 0 512 512" width="512" xmlns="http://www.w3.org/2000/svg"><path d="m465.434 428.06h-418.882v-273.322c0-17.269 13.999-31.268 31.268-31.268h356.346c17.269 0 31.268 13.999 31.268 31.268z" fill="#fff5f5"/><path d="m78.691 428.06v-263.669c0-5.639 4.572-10.211 10.211-10.211h334.182c5.639 0 10.211 4.572 10.211 10.211v263.669z" fill="#d5f3f7"/><path d="m423.084 154.18h-33.167c5.639 0 10.211 4.572 10.211 10.211v263.669h33.167v-263.669c0-5.639-4.571-10.211-10.211-10.211z" fill="#a7e8f1"/><path d="m363.207 428.06-3.494-51.634c-1.084-16.02-12.705-29.358-28.426-32.624l-51.186-10.635h-47.256l-51.186 10.635c-15.721 3.267-27.342 16.604-28.426 32.624l-3.494 51.634z" fill="#ff646f"/><path d="m359.713 376.426c-1.084-16.02-12.705-29.358-28.426-32.624l-51.186-10.635h-33l51.186 10.635c15.721 3.267 27.342 16.604 28.426 32.624l3.494 51.634h33z" fill="#ff4755"/><path d="m280.101 333.167v-32.159h-47.256v32.159c0 13.049 10.579 23.628 23.628 23.628 13.049 0 23.628-10.579 23.628-23.628z" fill="#fff3de"/><path d="m314.851 240.174h-11.549v-5.851c0-12.524-5.142-24.66-14.632-32.832-7.441-6.407-17.9-11.999-31.716-12.153-13.816.154-24.276 5.746-31.716 12.153-9.491 8.172-14.632 20.308-14.632 32.832v4.752h-11.549v22.341c0 6.385 5.176 11.561 11.561 11.561.261 12.174 5.377 23.892 14.62 31.851 7.441 6.407 17.9 14.391 31.716 14.546 13.816-.154 24.276-8.139 31.716-14.546 9.242-7.958 14.358-19.676 14.62-31.851 6.385 0 11.561-5.176 11.561-11.561z" fill="#fff3de"/><path d="m303.303 240.174v-5.851c0-12.524-5.142-24.66-14.632-32.832-3.324-2.862-7.254-5.557-11.813-7.682 3.086 4.211 4.919 9.457 4.919 15.141v52.256c0 32.985-8.878 47.285-26.09 58.108.422.02.838.054 1.267.059 13.817-.154 24.276-8.139 31.716-14.546 9.242-7.958 14.358-19.676 14.62-31.851 6.385 0 11.561-5.176 11.561-11.561v-21.242h-11.548z" fill="#ffe5c2"/><path d="m314.851 248.939s-11.302-3.37-19.853-12.852c-5.096-5.651-13.337-7.134-19.963-3.391-17.132 9.677-48.492 22.892-75.979 10.05v-16.898c0-22.02 17.851-39.87 39.87-39.87h23.707c5.261 0 10.377 1.724 14.565 4.909 4.038 3.07 8.942 4.786 14.013 4.902 13.142.302 23.639 11.042 23.639 24.188v28.962z" fill="#ffc265"/><path d="m464.247 458.005h-416.508c-22.227 0-40.246-18.019-40.246-40.246 0-6.914 5.605-12.519 12.519-12.519h471.961c6.914 0 12.52 5.605 12.52 12.519 0 22.227-18.019 40.246-40.246 40.246z" fill="#e1d3ce"/><path d="m185.993 405.239v5.436c0 11.569 9.378 20.947 20.947 20.947h98.107c11.568 0 20.947-9.378 20.947-20.947v-5.436z" fill="#fff5f5"/><path d="m474.43 53.995h-139.559c-12.583 0-22.783 10.2-22.783 22.783v69.567c0 12.583 10.2 22.783 22.783 22.783h15.072l-16.882 34.299c-2.393 4.862 2.954 9.886 7.658 7.193l72.481-41.492h61.231c12.583 0 22.783-10.2 22.783-22.783v-69.566c-.001-12.583-10.202-22.784-22.784-22.784z" fill="#98db7c"/><path d="m338.138 193.111-5.078 10.316c-2.393 4.862 2.954 9.886 7.658 7.193l72.481-41.492h-27.071c-3.995 0-7.92 1.044-11.386 3.029z" fill="#6acb44"/><path d="m474.429 53.995h-33.167c12.583 0 22.783 10.2 22.783 22.783v69.567c0 12.583-10.2 22.783-22.783 22.783h33.167c12.583 0 22.783-10.201 22.783-22.783v-69.566c.001-12.583-10.2-22.784-22.783-22.784z" fill="#6acb44"/><path d="m291.212 195.788c-5.071-.116-9.976-1.832-14.013-4.903-2.466-1.875-5.259-3.229-8.209-4.037 7.619 4.229 12.787 12.549 12.787 22.102v21.728c4.864-.331 9.766 1.577 13.222 5.409 8.551 9.482 19.853 12.852 19.853 12.852v-28.963c-.001-13.146-10.497-23.886-23.64-24.188z" fill="#ffa812"/><path d="m463.61 91.602c0-4.143-3.358-7.501-7.501-7.501h-101.605c-9.918 0-9.931 15.002 0 15.002h101.604c4.143 0 7.502-3.359 7.502-7.501z"/><path d="m405.306 122.788h-50.802c-9.918 0-9.931 15.002 0 15.002h50.802c4.143 0 7.501-3.358 7.501-7.501.001-4.142-3.358-7.501-7.501-7.501z"/><path d="m492.012 397.762h-19.043v-199.642c0-4.143-3.358-7.501-7.501-7.501s-7.501 3.358-7.501 7.501v199.643h-17.142v-221.147h33.64c16.701 0 30.288-13.587 30.288-30.289v-69.577c0-16.701-13.587-30.289-30.288-30.289h-139.581c-16.701 0-30.289 13.588-30.289 30.289.002 14.704-.007 68.531.008 69.913h-215.728c-9.767 0-17.714 7.947-17.714 17.714v99.98c0 4.143 3.358 7.501 7.501 7.501s7.501-3.358 7.501-7.501v-99.98c0-1.495 1.217-2.711 2.711-2.711h219.906c10.007 16.965 28.542 14.804 29.124 14.951l-11.562 23.491c-5.684 11.549 7.08 23.333 18.116 17.016l70.761-40.507h10.603v221.146h-57.132l-1.477-21.823c-1.306-19.302-15.447-35.532-34.389-39.467l-45.219-9.396v-11.733c12.005-9.021 20.457-19.501 22.722-36.206 16.364-6.514 11.093-25.039 12.033-30.2v-28.968c0-17.082-13.894-31.299-30.972-31.691-10.651-.244-12.387-9.815-28.755-9.815h-23.711c-26.124 0-47.378 21.253-47.378 47.378v35.575c0 8.03 4.991 14.917 12.033 17.721 2.179 16.066 10.133 26.498 21.76 35.474v12.465l-45.219 9.396c-18.942 3.936-33.083 20.165-34.389 39.467l-1.477 21.823h-58.088v-103.019c0-4.143-3.358-7.501-7.501-7.501s-7.501 3.358-7.501 7.501v103.018h-17.143v-243.04c0-13.108 10.664-23.772 23.772-23.772h205.206c9.918 0 9.931-15.002 0-15.002h-205.206c-21.38 0-38.774 17.394-38.774 38.774v243.04h-19.043c-36.038 0-21.233 67.777 27.731 67.777h416.575c48.951 0 63.81-67.777 27.732-67.777zm-82.514-235.157-66.796 38.237c11.739-26.222 17.405-29.614 13.624-35.691-3.527-5.667-9.762-2.759-21.442-3.538-8.429 0-15.286-6.858-15.286-15.286v-69.577c0-8.429 6.858-15.286 15.286-15.286h139.581c8.429 0 15.286 6.858 15.286 15.286v69.578c0 8.429-6.857 15.286-15.286 15.286-65.082.348-61.875-.78-64.967.991zm-202.949 63.237c0-17.852 14.523-32.375 32.375-32.375h23.711c10.688 0 12.296 9.442 28.411 9.811 8.996.207 16.314 7.695 16.314 16.693v16.916c-2.266-1.527-4.642-3.452-6.784-5.827-7.531-8.35-19.547-10.364-29.225-4.9-14.348 8.104-41.121 19.853-64.801 11.55v-11.868zm11.561 46.977c-.087-4.079-3.419-7.341-7.499-7.341-6.048 0-3.52-8.51-4.062-12.111 27.732 7.229 56.469-5.27 72.179-14.144 3.515-1.985 7.916-1.209 10.707 1.885 6.009 6.663 13.146 10.723 17.925 12.914-.524 3.292 1.902 11.457-4.062 11.457-4.08 0-7.412 3.261-7.499 7.341-.325 15.149-7.976 24.29-19.93 32.477-5.564 3.747-11.733 6.485-18.914 6.585-14.806-.208-38.338-15.449-38.845-39.063zm54.494 51.07v9.299c-.005 8.89-7.239 16.121-16.131 16.121-8.66 0-16.067-6.918-16.131-16.175v-9.625c10.894 4.417 21.579 4.451 32.262.38zm-111.904 53.063c.854-12.614 10.094-23.22 22.473-25.791l43.483-9.035c8.869 29.501 50.769 29.487 59.634 0l43.483 9.035c12.378 2.572 21.619 13.177 22.473 25.791l1.408 20.81h-194.362zm157.628 35.813c-.998 6.437-6.561 11.385-13.274 11.385h-98.122c-6.712 0-12.275-4.948-13.274-11.385zm145.953 37.771h-416.576c-29.888 0-40.195-37.772-27.731-37.772h158.589c1.062 14.727 13.375 26.387 28.368 26.387h98.122c14.993 0 27.306-11.66 28.368-26.387h158.589c12.497.001 2.089 37.772-27.729 37.772z"/></svg>