<svg id="Layer_1" height="512" viewBox="0 0 48 48" width="512" xmlns="http://www.w3.org/2000/svg"><path d="m24 6c-9.925 0-18 8.075-18 18 0 2.807.627 5.49 1.865 7.976.246.494.845.694 1.341.449.494-.246.695-.846.449-1.341-.95-1.908-1.469-3.954-1.598-6.084h1.944c.552 0 1-.448 1-1s-.448-1-1-1h-1.949c.136-2.184.708-4.247 1.637-6.109l.823.475c.158.091.33.134.499.134.346 0 .682-.179.867-.5.276-.479.112-1.09-.366-1.366l-.831-.479c1.18-1.772 2.703-3.295 4.475-4.475l.479.831c.186.321.521.5.867.5.169 0 .341-.043.499-.134.478-.276.642-.888.366-1.366l-.475-.823c1.862-.929 3.925-1.5 6.109-1.637v1.949c0 .552.448 1 1 1s1-.448 1-1v-1.949c2.184.136 4.247.708 6.109 1.637l-.475.823c-.276.479-.112 1.09.366 1.366.158.091.33.134.499.134.346 0 .682-.179.867-.5l.479-.831c1.772 1.18 3.295 2.703 4.475 4.475l-.831.479c-.478.276-.642.888-.366 1.366.186.321.521.5.867.5.169 0 .341-.043.499-.134l.823-.475c.929 1.862 1.5 3.925 1.637 6.109h-1.949c-.552 0-1 .448-1 1s.448 1 1 1h1.97c-.141 2.317-.771 4.532-1.88 6.597-.261.486-.079 1.093.408 1.354.15.081.312.119.472.119.356 0 .701-.191.882-.527 1.426-2.653 2.149-5.528 2.149-8.543 0-9.925-8.075-18-18-18z"/><path d="m14 35h-3c-.552 0-1 .448-1 1s.448 1 1 1h3v2h-2c-1.103 0-2 .897-2 2v2c0 1.103.897 2 2 2h3c.552 0 1-.448 1-1s-.448-1-1-1h-3v-2h2c1.103 0 2-.897 2-2v-2c0-1.103-.897-2-2-2z"/><path d="m23 35c-.552 0-1 .448-1 1v3h-2v-3c0-.552-.448-1-1-1s-1 .448-1 1v3c0 1.103.897 2 2 2h2v3c0 .552.448 1 1 1s1-.448 1-1v-8c0-.552-.448-1-1-1z"/><path d="m35.557 35h-2.557c-.552 0-1 .448-1 1s.448 1 1 1h2.557l-2.493 6.649c-.194.517.068 1.093.585 1.288.116.043.234.064.351.064.405 0 .786-.248.937-.649l2.493-6.649c.23-.614.145-1.303-.229-1.842s-.988-.86-1.644-.86z"/><path d="m29.196 34.02c-.544-.11-1.069.243-1.177.784l-2 10c-.108.542.243 1.068.784 1.177.066.013.132.02.197.02.467 0 .885-.329.979-.804l2-10c.108-.542-.243-1.068-.784-1.177z"/><path d="m27 24c0-1.302-.839-2.402-2-2.816v-7.184c0-.552-.448-1-1-1s-1 .448-1 1v7.184c-1.161.414-2 1.514-2 2.816 0 .462.113.894.301 1.285l-3.008 3.008c-.391.391-.391 1.023 0 1.414.195.195.451.293.707.293s.512-.098.707-.293l3.008-3.008c.391.187.824.301 1.285.301 1.654 0 3-1.346 3-3zm-3 1c-.551 0-1-.449-1-1s.449-1 1-1 1 .449 1 1-.449 1-1 1z"/><path d="m24 2c-12.131 0-22 9.869-22 22 0 4.053 1.106 8.001 3.2 11.425.162.333.504.561.9.561.552 0 1-.453 1-1.005 0-.186-.052-.368-.149-.525-1.93-3.125-2.951-6.741-2.951-10.455 0-11.029 8.972-20.001 20-20.001s20 8.972 20 20c0 3.996-1.179 7.855-3.409 11.161-.309.458-.188 1.079.27 1.388.171.116.366.171.558.171.321 0 .637-.154.83-.441 2.454-3.637 3.751-7.883 3.751-12.279 0-12.131-9.869-22-22-22z"/></svg>