<svg id="Capa_1" enable-background="new 0 0 512 512" viewBox="0 0 512 512" xmlns="http://www.w3.org/2000/svg"><g><path d="m439.602 433.03c4.142 0 7.5-3.358 7.5-7.5s-3.358-7.5-7.5-7.5h-18.68c-4.142 0-7.5 3.358-7.5 7.5v44.332c0 4.142 3.358 7.5 7.5 7.5h18.68c4.142 0 7.5-3.358 7.5-7.5s-3.358-7.5-7.5-7.5h-11.18v-7.166h9.802c4.142 0 7.5-3.358 7.5-7.5s-3.358-7.5-7.5-7.5h-9.802v-7.166z"/><path d="m483.7 433.03c4.142 0 7.5-3.358 7.5-7.5s-3.358-7.5-7.5-7.5h-18.68c-4.142 0-7.5 3.358-7.5 7.5v44.332c0 4.142 3.358 7.5 7.5 7.5h18.68c4.142 0 7.5-3.358 7.5-7.5s-3.358-7.5-7.5-7.5h-11.18v-7.166h9.802c4.142 0 7.5-3.358 7.5-7.5s-3.358-7.5-7.5-7.5h-9.802v-7.166z"/><path d="m51.106 433.03c2.981 0 5.854.876 8.309 2.535 3.433 2.319 8.094 1.417 10.414-2.016 2.319-3.432 1.416-8.095-2.016-10.414-4.944-3.34-10.721-5.105-16.706-5.105-16.47 0-29.87 13.4-29.87 29.87s13.4 29.87 29.87 29.87c15.786 0 26.811-12.283 26.811-29.87 0-4.142-3.358-7.5-7.5-7.5h-13.384c-4.142 0-7.5 3.358-7.5 7.5s3.358 7.5 7.5 7.5h4.556c-1.431 3.729-4.389 7.37-10.483 7.37-8.199 0-14.87-6.671-14.87-14.87s6.67-14.87 14.869-14.87z"/><path d="m94.5 418.03c-4.142 0-7.5 3.358-7.5 7.5v30.786c0 7.445 3.526 13.473 10.481 17.917 3.666 2.341 7.795 3.532 12.273 3.538h.036c3.84 0 7.453-.838 10.739-2.493 8.098-4.079 12.558-10.824 12.558-18.994v-30.754c0-4.142-3.358-7.5-7.5-7.5s-7.5 3.358-7.5 7.5v30.754c0 1.198 0 3.429-4.304 5.596-1.19.599-2.496.89-3.994.89-.005 0-.01 0-.016 0-1.6-.002-2.98-.388-4.218-1.179-3.285-2.099-3.557-3.693-3.557-5.275v-30.786c.002-4.142-3.356-7.5-7.498-7.5z"/><path d="m384.025 477.77c4.142 0 7.5-3.358 7.5-7.5v-37.24h4.904c4.142 0 7.5-3.358 7.5-7.5s-3.358-7.5-7.5-7.5h-24.708c-4.142 0-7.5 3.358-7.5 7.5s3.358 7.5 7.5 7.5h4.804v37.24c0 4.142 3.358 7.5 7.5 7.5z"/><path d="m241.127 437.157c0-10.547-8.876-19.127-19.786-19.127h-11.889c-.002 0-.005 0-.007 0s-.005 0-.007 0c-4.142 0-7.5 3.358-7.5 7.5v44.74c0 4.142 3.358 7.5 7.5 7.5s7.5-3.358 7.5-7.5v-7.61l11.059 12.565c1.482 1.685 3.552 2.545 5.633 2.545 1.76 0 3.527-.616 4.952-1.87 3.109-2.736 3.412-7.476.675-10.585l-9.549-10.849c6.734-3.055 11.419-9.655 11.419-17.309zm-19.785-4.127c2.549 0 4.786 1.929 4.786 4.127s-2.236 4.127-4.786 4.127c-1.063 0-2.663.005-4.347.013-.007-1.611-.012-3.13-.012-4.14 0-.875-.003-2.431-.007-4.127z"/><path d="m155.751 472.939 2.344-6.155h16.638l2.315 6.134c1.134 3.003 3.987 4.854 7.019 4.854.879 0 1.775-.156 2.646-.485 3.875-1.462 5.832-5.79 4.369-9.665l-16.647-44.112c-.026-.07-.054-.139-.082-.208-1.319-3.204-4.409-5.272-7.873-5.272-.003 0-.006 0-.01 0-3.468.004-6.557 2.08-7.871 5.29-.023.057-.046.114-.067.171l-16.8 44.11c-1.474 3.871.468 8.204 4.339 9.678 3.874 1.475 8.205-.469 9.68-4.34zm13.322-21.155h-5.265l2.644-6.943z"/><path d="m264.549 472.939 2.344-6.155h16.638l2.315 6.134c1.134 3.003 3.987 4.854 7.019 4.854.879 0 1.775-.156 2.646-.485 3.875-1.462 5.832-5.79 4.369-9.665l-16.647-44.112c-.026-.07-.054-.139-.082-.208-1.319-3.204-4.409-5.272-7.873-5.272-.003 0-.006 0-.01 0-3.468.004-6.557 2.08-7.871 5.29-.023.057-.046.114-.067.171l-16.8 44.11c-1.474 3.871.468 8.204 4.339 9.678 3.872 1.475 8.205-.469 9.68-4.34zm13.322-21.155h-5.265l2.644-6.943z"/><path d="m315.054 418.453c-3.134.977-5.268 3.878-5.268 7.16v44.657c0 4.142 3.358 7.5 7.5 7.5s7.5-3.358 7.5-7.5v-20.598l16.526 23.932c2.096 3.026 5.76 4.354 9.121 3.305 3.465-1.083 5.704-4.281 5.704-8.219l-.418-43.232c-.04-4.118-3.39-7.428-7.498-7.428-.024 0-.049 0-.074 0-4.142.04-7.467 3.43-7.427 7.572l.204 21.041-17.466-25.292c-1.866-2.7-5.269-3.874-8.404-2.898z"/><path d="m154.69 127.749c1.906-3.091 1.499-6.974-1.084-9.945l-28.666-32.365c-2.746-3.1-7.486-3.39-10.587-.642-3.101 2.746-3.388 7.486-.642 10.587l13.952 15.752-29.772-7.641c-3.177-.817-6.52.53-8.245 3.323s-1.434 6.382.718 8.86l29.284 33.715c1.483 1.707 3.568 2.582 5.666 2.582 1.743 0 3.495-.604 4.915-1.838 3.127-2.716 3.46-7.453.744-10.581l-13.507-15.55 28.17 7.23c3.569.909 7.206-.491 9.054-3.487z"/><path d="m34.881 254.536c-3.841.427-6.917 3.395-7.48 7.218s1.525 7.552 5.157 9.101l40.913 16.918c.938.388 1.908.571 2.863.571 2.944 0 5.739-1.746 6.934-4.636 1.583-3.828-.237-8.214-4.064-9.797l-15.6-6.451 17.743-1.304c.092-.007.185-.016.277-.026 3.657-.406 6.626-3.097 7.388-6.697.762-3.601-.863-7.264-4.043-9.116-.078-.045-.157-.089-.236-.132l-15.623-8.358 17.039.421c4.143.129 7.581-3.172 7.683-7.312.103-4.141-3.171-7.581-7.312-7.683l-44.447-1.098c-3.882-.035-7.279 2.517-8.31 6.238-1.031 3.723.58 7.681 3.917 9.625.079.046.158.09.238.133l19.978 10.688-22.733 1.67c-.096.008-.189.017-.282.027z"/><path d="m165.17 88.194c.001.001.001.003.001.004s.001.002.001.002l9.147 20.187c.821 1.812 2.328 3.224 4.19 3.924.853.321 1.748.48 2.642.48 1.058 0 2.114-.224 3.096-.668l17.015-7.71c3.773-1.71 5.445-6.154 3.736-9.927-1.71-3.772-6.154-5.443-9.927-3.736l-10.183 4.615-2.957-6.527 8.929-4.046c3.772-1.709 5.445-6.154 3.736-9.927-1.71-3.773-6.154-5.444-9.927-3.736l-8.928 4.046-2.958-6.527 10.183-4.614c3.773-1.71 5.445-6.154 3.736-9.927-1.71-3.773-6.156-5.444-9.927-3.736l-17.014 7.71c-3.772 1.71-5.445 6.154-3.736 9.927z"/><path d="m249.02 34.927c-3.787-1.679-8.217.032-9.896 3.819l-5.864 13.236-9.852-10.823c-2.789-3.062-7.532-3.285-10.595-.498-3.063 2.789-3.286 7.532-.498 10.595l16.087 17.672 3.235 20.356c.587 3.692 3.774 6.324 7.398 6.324.391 0 .788-.031 1.186-.094 4.091-.65 6.88-4.493 6.23-8.584l-3.239-20.382 9.626-21.727c1.679-3.786-.031-8.216-3.818-9.894z"/><path d="m102.47 156.611c-11.728-11.563-30.678-11.43-42.241.299-5.602 5.681-8.656 13.204-8.6 21.183.056 7.978 3.216 15.457 8.898 21.059 5.63 5.551 13.067 8.601 20.966 8.601.072 0 .145 0 .216-.001 7.979-.056 15.458-3.216 21.06-8.897 11.563-11.73 11.429-30.68-.299-42.244zm-10.383 31.711c-2.789 2.828-6.512 4.401-10.484 4.429-3.972.057-7.717-1.492-10.545-4.281-2.829-2.789-4.401-6.512-4.43-10.484-.028-3.972 1.492-7.716 4.281-10.545 2.905-2.947 6.746-4.423 10.59-4.423 3.772 0 7.547 1.423 10.439 4.274 5.839 5.757 5.906 15.191.149 21.03z"/><path d="m395.864 167.442c1.127.603 2.338.889 3.533.889 2.677 0 5.267-1.437 6.619-3.962l22.251-41.568c.035-.064.068-.13.101-.195 1.547-3.104 1.07-6.797-1.216-9.406-2.285-2.609-5.882-3.568-9.165-2.445-.058.02-.115.041-.173.062l-44.265 16.387c-3.884 1.438-5.868 5.753-4.43 9.638 1.438 3.884 5.751 5.867 9.638 4.43l6.177-2.287 10.951 12.525-3.094 5.78c-1.954 3.652-.579 8.197 3.073 10.152zm4.122-34.03 6.968-2.58-3.502 6.543z"/><path d="m474.319 243.697c-.198-4.138-3.717-7.343-7.85-7.132l-44.689 2.141c-4.137.198-7.331 3.713-7.132 7.85.192 4.016 3.508 7.141 7.485 7.141.121 0 .243-.003.365-.009l7.087-.34-11.858 13.531c-2.73 3.115-2.417 7.854.698 10.583 1.423 1.247 3.185 1.859 4.94 1.859 2.085 0 4.161-.865 5.644-2.557l16.935-19.324 16.202 16.015c2.946 2.911 7.694 2.883 10.606-.062 2.912-2.946 2.884-7.694-.062-10.606l-11.101-10.973 5.599-.268c4.136-.197 7.33-3.712 7.131-7.849z"/><path d="m377.061 77.257c-1.113-4.621-3.959-8.531-8.014-11.012l-11.088-6.782c-3.533-2.16-8.15-1.048-10.311 2.485l-10.767 17.603c-.001.001-.001.003-.002.004l-12.576 20.56c-1.041 1.702-1.361 3.748-.89 5.687.472 1.938 1.696 3.609 3.403 4.643.001 0 10.214 6.186 13.022 7.903 3.175 1.942 6.69 2.867 10.165 2.867 6.585 0 13.023-3.324 16.704-9.341 2.891-4.726 3.512-10.204 2.2-15.179 2.44-1.458 4.509-3.489 6.035-5.983 2.48-4.056 3.232-8.834 2.119-13.455zm-20.53-1.084 4.688 2.868c.859.525 1.157 1.309 1.259 1.729.101.42.192 1.253-.333 2.113-.526.859-1.31 1.158-1.729 1.259-.42.102-1.254.193-2.114-.333-.806-.493-2.317-1.411-3.972-2.416l-.722-.441zm-2.62 27.872c-1.307 2.137-4.11 2.812-6.246 1.505-1.257-.769-3.991-2.429-6.637-4.033l4.751-7.767c.24.146.477.289.713.433l5.913 3.617c2.137 1.307 2.813 4.109 1.506 6.245z"/><path d="m428.424 168.235c-7.739 1.939-14.26 6.777-18.361 13.621s-5.291 14.875-3.351 22.615c1.613 6.438 5.192 11.696 10.348 15.206 1.008.687 2.085 1.31 3.2 1.852 1.056.513 2.173.756 3.273.756 2.781 0 5.454-1.554 6.751-4.223 1.811-3.725.258-8.213-3.467-10.024-.463-.225-.906-.481-1.316-.76-2.098-1.427-3.523-3.598-4.239-6.452-.966-3.853-.374-7.852 1.668-11.259s5.288-5.815 9.141-6.781c7.951-1.996 16.045 2.855 18.039 10.809.725 2.891.573 5.891-.439 8.675-1.415 3.893.594 8.196 4.487 9.611 3.896 1.418 8.196-.594 9.611-4.487 2.038-5.608 2.346-11.641.891-17.447-4.005-15.977-20.259-25.718-36.236-21.712z"/><path d="m161.623 327.507c0 .439.045.867.118 1.285.139 1.786.906 3.472 2.187 4.743 1.405 1.395 3.304 2.177 5.284 2.177h.028c.372-.001 9.154-.035 12.671-.097 14.221-.249 24.542-12.492 24.542-29.112 0-17.198-10.294-29.208-25.033-29.208h-12.297c-1.992 0-3.901.792-5.308 2.202s-2.196 3.321-2.192 5.312v.03.001zm19.796-35.212c9.31 0 10.033 10.875 10.033 14.208 0 6.94-3.032 13.996-9.805 14.114-1.187.021-3.042.039-4.962.053-.015-4.899-.032-10.966-.032-14.215 0-2.734-.01-9.048-.019-14.161h4.785z"/><path d="m326.066 292.679c5.277-1.585 10.359 2.343 10.561 2.501 3.17 2.616 7.863 2.192 10.513-.96 2.665-3.171 2.255-7.902-.916-10.567-4.134-3.475-13.942-8.51-24.484-5.336-6.895 2.077-11.778 7.542-12.742 14.26-.912 6.35 1.843 12.46 7.189 15.946.332.216.679.405 1.041.566.261.117 6.479 2.885 13.476 5.465 2.502.923 4.909 2.507 4.649 3.966-.263 1.474-2.473 3.515-5.938 3.515-3.917 0-7.668-1.558-10.033-4.168-2.781-3.069-7.524-3.302-10.594-.521-3.069 2.782-3.303 7.524-.521 10.594 5.238 5.78 12.947 9.096 21.148 9.096 10.354 0 19.062-6.678 20.704-15.878 1.25-6.998-1.831-16.105-14.224-20.676-5.153-1.901-9.974-3.964-11.792-4.756-.17-.192-.329-.509-.256-1.017.129-.904.938-1.644 2.219-2.03z"/><path d="m280.197 337.035h.019c4.133 0 7.489-3.346 7.5-7.482l.05-20.637 12.964-19.916c2.26-3.472 1.277-8.118-2.194-10.377s-8.117-1.277-10.377 2.194l-7.898 12.132-8.001-12.254c-2.265-3.469-6.913-4.443-10.38-2.179-3.468 2.265-4.444 6.912-2.179 10.38l13.065 20.01-.05 20.612c-.011 4.141 3.339 7.507 7.481 7.517z"/><path d="m216.115 336.544c3.87 1.474 8.204-.469 9.678-4.339l2.344-6.155h16.639l2.315 6.134c1.134 3.004 3.987 4.854 7.019 4.854.879 0 1.775-.156 2.646-.485 3.875-1.463 5.832-5.79 4.369-9.665l-16.647-44.112c-.026-.068-.052-.136-.08-.203-1.318-3.207-4.408-5.278-7.875-5.278-.002 0-.005 0-.007 0-3.469.003-6.56 2.08-7.873 5.292-.023.056-.045.113-.067.169l-16.8 44.11c-1.475 3.87.468 8.204 4.339 9.678zm23.001-25.495h-5.265l2.644-6.943z"/><path d="m246.534 225.631c0-17.764-14.452-32.215-32.215-32.215-2.721 0-5.362.342-7.887.98 8.016-14.646 18.159-22.46 18.341-22.598 3.307-2.476 3.99-7.163 1.522-10.479-2.473-3.323-7.17-4.014-10.494-1.542-1.169.87-28.53 21.647-33.294 60.777-.263 1.655-.404 3.35-.404 5.078 0 17.764 14.452 32.216 32.216 32.216s32.215-14.453 32.215-32.217zm-49.431 0c0-9.493 7.723-17.215 17.216-17.215s17.215 7.723 17.215 17.215-7.723 17.216-17.215 17.216-17.216-7.723-17.216-17.216z"/><path d="m297.681 157.174c-17.764 0-32.215 14.452-32.215 32.215v39.526c0 17.764 14.452 32.215 32.215 32.215s32.216-14.452 32.216-32.215v-39.526c0-17.764-14.452-32.215-32.216-32.215zm17.216 71.741c0 9.493-7.723 17.215-17.216 17.215s-17.215-7.723-17.215-17.215v-39.526c0-9.493 7.723-17.215 17.215-17.215s17.216 7.723 17.216 17.215z"/><path d="m437.019 81.738c-48.352-48.352-112.639-74.981-181.019-74.981s-132.667 26.628-181.019 74.98c-48.352 48.353-74.981 112.64-74.981 181.02v115.588c0 14.753 12.002 26.756 26.756 26.756h337.561c4.142 0 7.5-3.358 7.5-7.5s-3.358-7.5-7.5-7.5h-43.909c48.29-23.839 81.589-73.599 81.589-130.997 0-73.083-54.567-135.318-126.927-144.762-4.113-.536-7.872 2.359-8.408 6.466s2.359 7.872 6.466 8.408c64.916 8.472 113.869 64.312 113.869 129.888 0 72.232-58.765 130.997-130.997 130.997s-130.997-58.765-130.997-130.997c0-66.127 49.418-122.025 114.95-130.024 4.112-.502 7.038-4.242 6.536-8.354-.502-4.111-4.239-7.037-8.354-6.536-73.048 8.917-128.133 71.216-128.133 144.914 0 57.398 33.299 107.157 81.589 130.997h-164.835c-6.482 0-11.756-5.273-11.756-11.756v-115.588c0-64.374 25.068-124.894 70.587-170.413s106.04-70.587 170.413-70.587 124.894 25.068 170.412 70.587c45.52 45.52 70.588 106.04 70.588 170.413v115.588c0 6.482-5.273 11.756-11.756 11.756h-85.834c-4.142 0-7.5 3.358-7.5 7.5s3.358 7.5 7.5 7.5h85.834c14.753 0 26.756-12.002 26.756-26.756v-115.588c0-68.38-26.629-132.667-74.981-181.019z"/><path d="m504.5 490.243h-497c-4.142 0-7.5 3.358-7.5 7.5s3.358 7.5 7.5 7.5h497c4.142 0 7.5-3.358 7.5-7.5s-3.358-7.5-7.5-7.5z"/><path d="m472.65 330.865c-1.251-3.85-4.335-6.762-8.25-7.79l-8.707-2.286-4.864-7.574c-2.188-3.406-5.911-5.44-9.958-5.44-4.048 0-7.771 2.034-9.958 5.439l-4.865 7.574-8.708 2.287c-3.915 1.028-6.999 3.941-8.249 7.79-1.251 3.85-.468 8.019 2.096 11.152l5.7 6.967-.516 8.987c-.232 4.042 1.584 7.875 4.859 10.254 2.06 1.497 4.488 2.267 6.944 2.267 1.45 0 2.91-.269 4.309-.814l8.388-3.268 8.388 3.268c3.771 1.469 7.979.927 11.254-1.453 3.275-2.379 5.091-6.212 4.859-10.254l-.517-8.987 5.701-6.968c2.562-3.133 3.345-7.302 2.094-11.151zm-21.255 10.883c-1.19 1.455-1.791 3.303-1.683 5.179l.401 6.985-6.52-2.54c-.875-.341-1.799-.512-2.723-.512s-1.847.17-2.723.512l-6.52 2.54.401-6.985c.107-1.876-.493-3.725-1.683-5.179l-4.431-5.416 6.768-1.777c1.818-.477 3.39-1.619 4.406-3.201l3.781-5.887 3.782 5.887c1.016 1.582 2.588 2.724 4.406 3.201l6.768 1.777z"/><path d="m102.91 330.865c-1.25-3.849-4.334-6.762-8.25-7.79l-8.707-2.287-4.864-7.573c-2.188-3.406-5.911-5.44-9.959-5.44s-7.771 2.034-9.958 5.439l-4.865 7.574-8.707 2.286c-3.915 1.028-6.999 3.94-8.25 7.79s-.468 8.019 2.096 11.152l5.7 6.967-.517 8.987c-.232 4.042 1.584 7.875 4.859 10.254 2.06 1.497 4.488 2.267 6.944 2.267 1.45 0 2.91-.269 4.309-.814l8.388-3.268 8.387 3.268c3.771 1.469 7.979.927 11.254-1.453 3.275-2.379 5.091-6.212 4.859-10.254l-.516-8.987 5.7-6.968c2.564-3.132 3.348-7.301 2.097-11.15zm-21.256 10.883c-1.19 1.455-1.791 3.303-1.683 5.179l.401 6.985-6.52-2.54c-.875-.341-1.799-.512-2.723-.512-.923 0-1.847.17-2.723.512l-6.52 2.54.401-6.985c.108-1.876-.493-3.725-1.683-5.179l-4.431-5.416 6.768-1.777c1.818-.477 3.39-1.619 4.406-3.201l3.781-5.887 3.782 5.887c1.016 1.582 2.588 2.724 4.406 3.201l6.768 1.777z"/><circle cx="293.44" cy="69.262" r="7.5"/></g><g/><g/><g/><g/><g/><g/><g/><g/><g/><g/><g/><g/><g/><g/><g/></svg>