<svg clip-rule="evenodd" fill-rule="evenodd" stroke-linejoin="round" stroke-miterlimit="2" viewBox="0 0 510 510" xmlns="http://www.w3.org/2000/svg"><path d="m220.891 436.339c-7.26.84-14.642 1.272-22.12 1.272-105.626 0-191.771-86.145-191.771-191.771s86.145-191.77 191.771-191.77c68.018 0 127.963 35.716 162.02 89.361l21.444-29.229c1.454-1.982 3.738-3.185 6.195-3.264 2.456-.078 4.813.977 6.39 2.862l106.315 127.024c1.994 2.383 2.428 5.705 1.113 8.52s-4.141 4.614-7.248 4.614h-38.438c-1.532 69.337-22.977 120.291-53.857 153.601-49.081 52.944-122.193 61.973-180.979 29.314-.292-.162-.571-.341-.835-.534zm129.669-278.963c-30.552-52.149-87.194-87.306-151.789-87.306-96.814 0-175.771 78.957-175.771 175.77 0 96.814 78.957 175.771 175.771 175.771 15.647 0 30.828-2.062 45.285-5.93 49.026-18.669 71.925-52.945 82.561-89.25-26.761 42.374-74.009 70.509-127.846 70.509-83.47 0-151.1-67.63-151.1-151.1s67.63-151.099 151.1-151.099c59.588 0 111.103 34.469 135.703 84.561zm-16.93 96.582h-38.138c-3.015 0-5.774-1.695-7.136-4.384-1.363-2.69-1.098-5.917.686-8.348l34.574-47.125c-20.3-48.947-68.543-83.36-124.845-83.36-74.632 0-135.1 60.468-135.1 135.099s60.468 135.1 135.1 135.1c71.905 0 130.663-56.132 134.859-126.982zm18.075-8c0 61.172-7.221 150.098-103.868 185.422 48.672 18.297 104.321 7.17 143.134-34.698 29.86-32.211 49.679-82.321 49.679-150.724 0-4.418 3.582-8 8-8h29.222l-88.773-106.064c-19.232 26.213-77.816 106.064-77.815 106.064h32.421c4.418 0 8 3.582 8 8zm-66.685 74.818c3.122 3.122 3.122 8.191 0 11.314-3.122 3.122-8.192 3.122-11.314 0l-8.751-8.751c-3.122-3.123-3.122-8.192 0-11.314s8.192-3.122 11.314 0zm-11.314-161.185c3.122-3.122 8.192-3.122 11.314 0s3.122 8.192 0 11.314l-8.751 8.751c-3.122 3.122-8.192 3.122-11.314 0s-3.122-8.192 0-11.314zm-149.871 172.499c-3.122 3.122-8.192 3.122-11.314 0-3.122-3.123-3.122-8.192 0-11.314l8.751-8.751c3.122-3.122 8.192-3.122 11.314 0s3.122 8.191 0 11.314zm66.936-200.179c0-4.415 3.584-8 8-8 4.415 0 8 3.585 8 8v12.335c0 4.415-3.585 8-8 8-4.416 0-8-3.585-8-8zm0 59.798c0-4.415 3.584-8 8-8 4.415 0 8 3.585 8 8v49.512l32.169 18.568c3.824 2.207 5.137 7.104 2.93 10.928s-7.104 5.137-10.928 2.929l-36.171-20.877c-2.475-1.429-4-4.07-4-6.929zm-78.25-20.804c-3.122-3.122-3.122-8.192 0-11.314s8.192-3.122 11.314 0l8.751 8.751c3.122 3.122 3.122 8.192 0 11.314s-8.192 3.122-11.314 0zm94.25 188.865c0 4.415-3.585 8-8 8-4.416 0-8-3.585-8-8v-12.335c0-4.415 3.584-8 8-8 4.415 0 8 3.585 8 8zm-121.93-105.93c-4.415 0-8-3.584-8-8 0-4.415 3.585-8 8-8h12.335c4.415 0 8 3.585 8 8 0 4.416-3.585 8-8 8z"/></svg>