<svg id="Layer_1" viewBox="0 0 64 64" xmlns="http://www.w3.org/2000/svg" data-name="Layer 1"><path d="m33.664 10.645a1 1 0 0 0 -1-1h-15a1 1 0 0 0 -1 1v24.01a1 1 0 0 0 1 1h28.675a1 1 0 0 0 1-1v-12.005a1 1 0 0 0 -1-1h-12.675zm-2 23.01h-13v-4h13zm0-6h-13v-4h13zm0-6h-13v-4h13zm0-6h-13v-4h13zm13.675 18h-11.675v-4h11.675zm0-10.005v4h-11.675v-4z"/><path d="m22.802 53.628h1.68l-.816-3.168z"/><path d="m54 43.67v-26.294l-.293-.293-14.29-14.29-.293-.293h-25.124a4 4 0 0 0 -4 4v33.742a1.991 1.991 0 0 0 -1 1.722v14.536a5.006 5.006 0 0 0 5 5h36a5.006 5.006 0 0 0 5-5v-11.107a1.991 1.991 0 0 0 -1-1.723zm-28.618 13.462-.482-1.872h-2.53l-.516 1.872h-1.92l2.58-8.928h2.256l2.544 8.928zm9.384 0h-1.9l-1.164-5.688-1.152 5.688h-1.9l-1.864-8.932h1.824l1.008 5.364 1.128-5.364h1.92l1.044 5.364 1.09-5.364h1.812zm7.944-.576a3.586 3.586 0 0 1 -2.352.7 3.844 3.844 0 0 1 -1.9-.516 3 3 0 0 1 -.852-.678 3.993 3.993 0 0 1 -.632-1.062l1.6-.7a4.5 4.5 0 0 0 .312.57 1.948 1.948 0 0 0 .384.438 1.643 1.643 0 0 0 .5.282 1.88 1.88 0 0 0 .642.1 2.5 2.5 0 0 0 .492-.048 1.293 1.293 0 0 0 .426-.162.818.818 0 0 0 .294-.312 1.031 1.031 0 0 0 .108-.5.875.875 0 0 0 -.456-.744 5.9 5.9 0 0 0 -1.212-.6 7.529 7.529 0 0 1 -2.076-1.092 2.1 2.1 0 0 1 -.72-1.692 2.193 2.193 0 0 1 .84-1.764 3.181 3.181 0 0 1 2.1-.7 3.549 3.549 0 0 1 1.9.516 2.857 2.857 0 0 1 .744.648 4.239 4.239 0 0 1 .588 1.008l-1.764.54a2.457 2.457 0 0 0 -.546-.834 1.286 1.286 0 0 0 -.93-.318 1.876 1.876 0 0 0 -.39.042 1.286 1.286 0 0 0 -.36.132.7.7 0 0 0 -.366.642.612.612 0 0 0 .114.348 1.139 1.139 0 0 0 .39.324 8.1 8.1 0 0 0 1.3.576 6.23 6.23 0 0 1 1.824.972 2.164 2.164 0 0 1 .852 1.848 2.526 2.526 0 0 1 -.854 2.036zm9.29-13.163h-21.914l-2.4-2.746a2 2 0 0 0 -1.505-.683h-14.181v-33.464a2 2 0 0 1 2-2h23.71v10.29a4 4 0 0 0 4 4h10.29z"/></svg>