<svg id="Capa_1" enable-background="new 0 0 512 512" viewBox="0 0 512 512" xmlns="http://www.w3.org/2000/svg"><g><g><path d="m421.414 54.549c-19.175 0-34.774 15.6-34.774 34.774s15.6 34.774 34.774 34.774 34.774-15.6 34.774-34.774-15.599-34.774-34.774-34.774zm0 54.549c-10.903 0-19.774-8.871-19.774-19.774s8.871-19.774 19.774-19.774 19.774 8.871 19.774 19.774-8.871 19.774-19.774 19.774z"/><path d="m497.998 64.786-9.498-1.499c-.389-.993-.805-1.991-1.244-2.982l5.662-7.785c4.396-6.044 3.75-14.265-1.533-19.549l-13.618-13.618c-5.283-5.283-13.504-5.929-19.549-1.533l-7.785 5.662c-.985-.437-1.982-.853-2.981-1.243l-1.5-9.5c-1.167-7.382-7.436-12.739-14.908-12.739h-19.26c-7.474 0-13.742 5.357-14.906 12.738l-1.5 9.499c-.998.391-1.995.807-2.982 1.244l-7.785-5.662c-6.043-4.395-14.265-3.749-19.549 1.533l-13.618 13.618c-5.283 5.284-5.929 13.505-1.533 19.549l5.662 7.785c-.437.985-.853 1.983-1.244 2.982l-9.499 1.499c-7.381 1.166-12.738 7.436-12.738 14.907v19.26c0 7.472 5.357 13.741 12.739 14.907l9.498 1.499c.391.998.807 1.996 1.244 2.982l-5.662 7.785c-4.396 6.044-3.75 14.265 1.533 19.549l13.618 13.618c5.284 5.283 13.504 5.929 19.549 1.533l7.785-5.662c.985.437 1.983.853 2.982 1.244l1.5 9.497c1.164 7.383 7.433 12.74 14.906 12.74h19.26c7.472 0 13.741-5.357 14.907-12.738l1.5-9.5c.998-.39 1.995-.806 2.981-1.243l7.785 5.662c6.044 4.396 14.265 3.749 19.549-1.533l13.618-13.618c5.283-5.284 5.929-13.505 1.533-19.549l-5.662-7.785c.437-.985.853-1.983 1.244-2.982l9.499-1.499c7.381-1.166 12.738-7.436 12.738-14.907v-19.26c.001-7.47-5.356-13.74-12.738-14.906zm-2.261 34.167c0 .046-.033.084-.077.091l-10.318 1.628c-4.812.762-8.858 4.045-10.56 8.567-.462 1.227-.977 2.459-1.526 3.661-2.029 4.423-1.501 9.631 1.38 13.591l6.151 8.458c.026.037.022.087-.01.119l-13.618 13.618c-.032.034-.083.035-.119.01l-8.457-6.151c-3.963-2.882-9.168-3.409-13.59-1.382-1.204.552-2.437 1.066-3.661 1.527-4.526 1.703-7.81 5.751-8.568 10.562l-1.629 10.315c-.007.045-.045.078-.091.078h-19.26c-.045 0-.083-.032-.09-.078l-1.629-10.317c-.762-4.812-4.045-8.858-8.567-10.56-1.227-.462-2.459-.977-3.659-1.526-1.783-.818-3.694-1.221-5.6-1.221-2.82 0-5.629.881-7.993 2.601l-8.458 6.151c-.036.026-.087.024-.119-.01l-13.618-13.618c-.032-.032-.036-.082-.01-.119l6.151-8.457c2.881-3.961 3.409-9.169 1.382-13.59-.552-1.204-1.066-2.437-1.527-3.661-1.702-4.524-5.749-7.808-10.563-8.569l-10.314-1.628c-.045-.007-.078-.045-.078-.091v-19.26c0-.046.033-.084.077-.091l10.318-1.628c4.812-.762 8.858-4.045 10.56-8.567.462-1.227.977-2.459 1.526-3.661 2.029-4.423 1.501-9.631-1.38-13.591l-6.151-8.458c-.026-.037-.022-.087.01-.119l13.618-13.618c.031-.035.082-.036.119-.01l8.459 6.152c3.961 2.88 9.169 3.408 13.588 1.381 1.204-.552 2.437-1.066 3.661-1.527 4.524-1.702 7.808-5.749 8.569-10.562l1.629-10.317c.007-.044.045-.076.09-.076h19.26c.046 0 .084.033.091.078l1.629 10.314c.759 4.812 4.042 8.86 8.566 10.562 1.227.462 2.459.977 3.661 1.526 4.42 2.028 9.629 1.5 13.591-1.38l8.458-6.151c.036-.025.087-.024.119.01l13.618 13.618c.032.032.036.082.01.119l-6.151 8.457c-2.881 3.961-3.409 9.169-1.382 13.59.557 1.214 1.07 2.445 1.527 3.661 1.702 4.524 5.749 7.808 10.563 8.569l10.314 1.628c.045.007.078.045.078.091z"/><path d="m47.297 178.65h23.26c4.142 0 7.5-3.357 7.5-7.5s-3.358-7.5-7.5-7.5h-23.26c-5.123 0-9.29-4.168-9.29-9.29v-19.18c0-27.589 22.453-50.041 50.047-50.05 27.604.009 50.062 22.461 50.062 50.05v19.181c0 5.122-4.167 9.29-9.29 9.29h-23.27c-4.142 0-7.5 3.357-7.5 7.5s3.358 7.5 7.5 7.5h23.27c13.394 0 24.29-10.896 24.29-24.29v-19.181c0-26.409-15.837-49.187-38.513-59.366 9.758-7.807 16.023-19.806 16.023-33.246.001-23.472-19.094-42.568-42.565-42.568s-42.568 19.096-42.568 42.567c0 13.436 6.259 25.438 16.013 33.245-22.668 10.181-38.499 32.96-38.499 59.367v19.181c0 13.394 10.897 24.29 24.29 24.29zm40.764-163.65c15.201 0 27.567 12.366 27.567 27.567 0 15.2-12.366 27.566-27.567 27.566s-27.568-12.365-27.568-27.566 12.367-27.567 27.568-27.567z"/><path d="m254.737 166.677c-49.253 0-89.323 40.07-89.323 89.323s40.07 89.323 89.323 89.323 89.323-40.07 89.323-89.323-40.07-89.323-89.323-89.323zm0 163.646c-40.982 0-74.323-33.341-74.323-74.323s33.341-74.323 74.323-74.323 74.323 33.341 74.323 74.323-33.34 74.323-74.323 74.323z"/><path d="m268.721 224.022-21.841 21.84-6.125-6.126c-9.226-9.225-24.237-9.225-33.464.001-4.469 4.469-6.93 10.411-6.93 16.731 0 6.321 2.461 12.263 6.931 16.732l22.856 22.856c4.47 4.47 10.412 6.932 16.732 6.932 6.321 0 12.264-2.462 16.732-6.931l38.572-38.572c9.226-9.227 9.225-24.238-.001-33.464-9.227-9.224-24.239-9.222-33.462.001zm22.856 22.858-38.572 38.572c-1.636 1.636-3.811 2.537-6.125 2.537-2.313 0-4.489-.901-6.125-2.538l-22.857-22.857c-1.636-1.636-2.537-3.811-2.537-6.125 0-2.313.901-4.489 2.537-6.125 1.689-1.689 3.907-2.533 6.125-2.533s4.437.844 6.125 2.533l11.429 11.429c2.928 2.927 7.677 2.929 10.606 0l27.144-27.143c3.376-3.378 8.872-3.378 12.25 0 3.378 3.377 3.378 8.873 0 12.25z"/><path d="m55.735 380.679h64.65c4.142 0 7.5-3.357 7.5-7.5s-3.358-7.5-7.5-7.5h-64.65c-4.142 0-7.5 3.357-7.5 7.5s3.358 7.5 7.5 7.5z"/><path d="m55.735 413.678h64.65c4.142 0 7.5-3.357 7.5-7.5s-3.358-7.5-7.5-7.5h-64.65c-4.142 0-7.5 3.357-7.5 7.5s3.358 7.5 7.5 7.5z"/><path d="m55.735 446.676h64.65c4.142 0 7.5-3.357 7.5-7.5s-3.358-7.5-7.5-7.5h-64.65c-4.142 0-7.5 3.357-7.5 7.5s3.358 7.5 7.5 7.5z"/><path d="m209.28 96.823h72.808l-11.441 11.441c-2.929 2.929-2.929 7.678.001 10.606 1.464 1.464 3.384 2.196 5.303 2.196s3.839-.732 5.304-2.197l24.243-24.244c2.929-2.929 2.929-7.677 0-10.605l-24.243-24.244c-2.93-2.929-7.679-2.93-10.606-.001-2.93 2.929-2.93 7.678-.001 10.606l11.441 11.441h-72.809c-4.142 0-7.5 3.357-7.5 7.5s3.358 7.501 7.5 7.501z"/><path d="m421.414 203.043c-4.143 0-7.5 3.357-7.5 7.5v72.808l-11.441-11.441c-2.928-2.928-7.677-2.929-10.606.001-2.929 2.929-2.929 7.678.001 10.606l24.244 24.243c1.464 1.464 3.384 2.196 5.303 2.196s3.839-.732 5.303-2.196l24.244-24.243c2.93-2.929 2.93-7.678.001-10.606s-7.678-2.93-10.606-.001l-11.441 11.441v-72.808c-.002-4.143-3.359-7.5-7.502-7.5z"/><path d="m300.194 415.177h-72.808l11.441-11.44c2.929-2.93 2.929-7.678 0-10.607-2.929-2.928-7.678-2.928-10.606 0l-24.244 24.244c-2.929 2.93-2.929 7.678 0 10.607l24.244 24.244c1.464 1.464 3.384 2.196 5.303 2.196s3.839-.732 5.303-2.196c2.929-2.93 2.929-7.678 0-10.607l-11.441-11.44h72.808c4.143 0 7.5-3.357 7.5-7.5s-3.357-7.501-7.5-7.501z"/><path d="m167.358 497h-7.151v-139.98c0-13.052-10.614-23.67-23.66-23.67h-96.97c-13.052 0-23.67 10.618-23.67 23.67v35.391c0 4.143 3.358 7.5 7.5 7.5s7.5-3.357 7.5-7.5v-35.391c0-4.78 3.889-8.67 8.67-8.67h96.97c4.775 0 8.66 3.89 8.66 8.67v139.98h-52.172v-24.825c0-4.143-3.358-7.5-7.5-7.5s-7.5 3.357-7.5 7.5v24.825h-47.128v-69.59c0-4.143-3.358-7.5-7.5-7.5s-7.5 3.357-7.5 7.5v69.59h-7.144c-4.142 0-7.5 3.357-7.5 7.5s3.358 7.5 7.5 7.5h158.596c4.142 0 7.5-3.357 7.5-7.5s-3.359-7.5-7.501-7.5z"/><path d="m475.963 365.679h-12.726c-.102-5.105-2.12-9.881-5.725-13.471l-13.102-13.111c-3.653-3.652-8.71-5.747-13.874-5.747h-61.649c-10.818 0-19.62 8.807-19.62 19.631v32.109c0 4.143 3.357 7.5 7.5 7.5s7.5-3.357 7.5-7.5v-32.11c0-2.554 2.072-4.631 4.62-4.631h61.649c1.216 0 2.406.493 3.265 1.353l13.113 13.122c.865.861 1.342 2.018 1.342 3.256v93.97c0 2.548-2.072 4.62-4.619 4.62h-74.75c-2.548 0-4.62-2.072-4.62-4.62v-39.96c0-4.143-3.357-7.5-7.5-7.5s-7.5 3.357-7.5 7.5v39.96c0 10.818 8.802 19.62 19.62 19.62h12.701v12.708c0 10.819 8.803 19.622 19.622 19.622h74.752c10.819 0 19.622-8.803 19.622-19.622v-107.077c.001-10.82-8.802-19.622-19.621-19.622zm4.622 126.699c0 2.549-2.073 4.622-4.622 4.622h-74.752c-2.549 0-4.622-2.073-4.622-4.622v-12.708h47.049c10.818 0 19.619-8.802 19.619-19.62v-79.371h12.706c2.549 0 4.622 2.073 4.622 4.622z"/><path d="m389.089 380.679h34.346c4.143 0 7.5-3.357 7.5-7.5s-3.357-7.5-7.5-7.5h-34.346c-4.143 0-7.5 3.357-7.5 7.5s3.357 7.5 7.5 7.5z"/><path d="m389.089 413.678h34.346c4.143 0 7.5-3.357 7.5-7.5s-3.357-7.5-7.5-7.5h-34.346c-4.143 0-7.5 3.357-7.5 7.5s3.357 7.5 7.5 7.5z"/><path d="m389.089 446.676h17.173c4.143 0 7.5-3.357 7.5-7.5s-3.357-7.5-7.5-7.5h-17.173c-4.143 0-7.5 3.357-7.5 7.5s3.357 7.5 7.5 7.5z"/></g></g><g/><g/><g/><g/><g/><g/><g/><g/><g/><g/><g/><g/><g/><g/><g/></svg>