<svg height="512" viewBox="0 0 28 28" width="512" xmlns="http://www.w3.org/2000/svg"><g id="Layer_2" data-name="Layer 2"><path d="m26.186 5.536-5-2a.5.5 0 0 0 -.372 0l-5 2a.5.5 0 0 0 -.314.464v5.168a5.529 5.529 0 0 0 2.671 4.718l2.572 1.543a.5.5 0 0 0 .514 0l2.243-1.346v5.6a.821.821 0 0 1 -.82.82h-19.36a.821.821 0 0 1 -.82-.82v-11.183h11.5a.5.5 0 0 0 0-1h-11.5v-1.18a.821.821 0 0 1 .82-.82h10.68a.5.5 0 0 0 0-1h-10.68a1.821 1.821 0 0 0 -1.82 1.82v13.36a1.821 1.821 0 0 0 1.82 1.82h19.36a1.821 1.821 0 0 0 1.82-1.82v-6.28a5.529 5.529 0 0 0 2-4.234v-5.166a.5.5 0 0 0 -.314-.464zm-.686 5.632a4.522 4.522 0 0 1 -2.186 3.86l-2.314 1.389-2.314-1.389a4.522 4.522 0 0 1 -2.186-3.86v-4.83l4.5-1.8 4.5 1.8z"/><path d="m19.354 9.732a.5.5 0 0 0 -.708.707l1.334 1.333a.5.5 0 0 0 .707 0l2.667-2.667a.5.5 0 0 0 -.708-.707l-2.313 2.314z"/><path d="m5 19.5a.5.5 0 0 0 0 1h4a.5.5 0 0 0 0-1z"/></g></svg>