<svg id="Layer_1" enable-background="new 0 0 66 66" height="512" viewBox="0 0 66 66" width="512" xmlns="http://www.w3.org/2000/svg"><g><path d="m64.24 31.71c0-1.74-.68-3.38-1.9-4.6-1.23-1.23-2.86-1.9-4.6-1.9s-3.38.68-4.61 1.91l-.59.6v-11.64c0-.03-.02-.06-.02-.09-.01-.11-.03-.22-.07-.33-.02-.05-.03-.09-.05-.13-.06-.12-.13-.24-.23-.35-.01-.01-.01-.02-.02-.03l-13.03-13.01c-.01-.01-.03-.02-.05-.04-.1-.09-.2-.16-.31-.21-.05-.03-.11-.04-.17-.06-.09-.03-.18-.05-.27-.05-.04 0-.08-.03-.12-.03h-29.94c-3.59 0-6.51 2.92-6.51 6.51v49.48c0 3.59 2.92 6.51 6.51 6.51h37.76c3.59 0 6.51-2.92 6.51-6.51v-11.63l7.96-7.96s.01-.01.01-.01l1.84-1.82c1.23-1.24 1.9-2.87 1.9-4.61zm-13.92 12.93c-.01.01-.02.02-.03.03l-9.13 9.13-2.75-2.75c-.03-.03-.07-.07-.11-.1l-2.66-2.66 16.57-16.57 5.51 5.52zm-15.85 6.15 2.09 2.09c.04.04.08.07.12.1l1.98 1.99-5.76 1.58zm5.04-44.59 8.58 8.58h-4.67c-2.15 0-3.91-1.75-3.91-3.91zm10.42 51.54c0 2.15-1.75 3.91-3.91 3.91h-37.76c-2.15 0-3.91-1.75-3.91-3.91v-49.48c0-2.15 1.75-3.91 3.91-3.91h28.64v6.52c0 3.59 2.92 6.51 6.51 6.51h6.52v12.94l-17.02 17.02c-.13.12-.22.26-.29.43-.01.02-.02.04-.03.06-.01.04-.04.07-.05.12l-2.77 10.13c-.12.45.01.93.34 1.26.25.25.58.38.92.38.11 0 .23-.02.34-.05l10.13-2.77c.03-.01.06-.03.09-.04.04-.02.08-.03.13-.05.12-.06.23-.13.33-.22.01-.01.03-.02.04-.03l7.84-7.84zm10.57-23.27-.93.92-5.52-5.52.92-.92c1.47-1.47 4.05-1.47 5.53 0 .74.74 1.14 1.72 1.14 2.76s-.4 2.02-1.14 2.76z"/><path d="m16.07 9.56h-7.81c-.72 0-1.3.58-1.3 1.3v7.81c0 .72.58 1.3 1.3 1.3h7.81c.72 0 1.3-.58 1.3-1.3v-7.81c.01-.72-.58-1.3-1.3-1.3zm-1.3 7.81h-5.2v-5.21h5.21v5.21z"/><path d="m21.28 13.47h11.72c.72 0 1.3-.58 1.3-1.3s-.58-1.3-1.3-1.3h-11.72c-.72 0-1.3.58-1.3 1.3s.58 1.3 1.3 1.3z"/><path d="m21.28 18.67h7.81c.72 0 1.3-.58 1.3-1.3s-.58-1.3-1.3-1.3h-7.81c-.72 0-1.3.58-1.3 1.3s.58 1.3 1.3 1.3z"/><path d="m16.07 23.9h-7.81c-.72 0-1.3.58-1.3 1.3v7.81c0 .72.58 1.3 1.3 1.3h7.81c.72 0 1.3-.58 1.3-1.3v-7.81c.01-.72-.58-1.3-1.3-1.3zm-1.3 7.81h-5.2v-5.21h5.21v5.21z"/><path d="m21.28 27.8h11.72c.72 0 1.3-.58 1.3-1.3s-.58-1.3-1.3-1.3h-11.72c-.72 0-1.3.58-1.3 1.3s.58 1.3 1.3 1.3z"/><path d="m21.28 33h7.81c.72 0 1.3-.58 1.3-1.3s-.58-1.3-1.3-1.3h-7.81c-.72 0-1.3.58-1.3 1.3s.58 1.3 1.3 1.3z"/><path d="m16.07 38.23h-7.81c-.72 0-1.3.58-1.3 1.3v7.81c0 .72.58 1.3 1.3 1.3h7.81c.72 0 1.3-.58 1.3-1.3v-7.81c.01-.71-.58-1.3-1.3-1.3zm-1.3 7.81h-5.2v-5.21h5.21v5.21z"/><path d="m21.28 42.14h11.72c.72 0 1.3-.58 1.3-1.3s-.58-1.3-1.3-1.3h-11.72c-.72 0-1.3.58-1.3 1.3s.58 1.3 1.3 1.3z"/><path d="m30.39 46.04c0-.72-.58-1.3-1.3-1.3h-7.81c-.72 0-1.3.58-1.3 1.3s.58 1.3 1.3 1.3h7.81c.72 0 1.3-.58 1.3-1.3z"/></g></svg>