<svg id="Capa_1" enable-background="new 0 0 512 512" height="512" viewBox="0 0 512 512" width="512" xmlns="http://www.w3.org/2000/svg"><g><path d="m196 180v30h-29.106c-4.138 0-8.092 1.709-10.927 4.723-2.834 3.014-4.298 7.065-4.045 11.196 3.277 53.395 15.2 95.101 35.439 123.959 18.146 25.873 42.523 40.122 68.639 40.122s50.493-14.249 68.639-40.122c20.239-28.858 32.163-70.563 35.439-123.959.253-4.13-1.21-8.181-4.045-11.196-2.835-3.014-6.789-4.723-10.927-4.723h-29.106v-30c0-33.084-26.916-60-60-60s-60 26.916-60 60zm60 180c-28.688 0-63.875-31.8-72.845-120h145.689c-8.969 88.2-44.156 120-72.844 120zm30-180v30h-60v-30c0-16.542 13.458-30 30-30s30 13.458 30 30z"/><path d="m256 270c-8.284 0-15 6.716-15 15v30c0 8.284 6.716 15 15 15s15-6.716 15-15v-30c0-8.284-6.716-15-15-15z"/><path d="m470.184 61.595-210-61c-2.732-.794-5.636-.794-8.368 0l-210 61c-6.408 1.862-10.816 7.732-10.816 14.405v141.597c0 136.461 90.568 256.595 220.879 293.826 1.347.385 2.733.577 4.121.577s2.774-.192 4.121-.577c129.926-37.121 220.879-157.03 220.879-293.826v-141.597c0-6.673-4.408-12.543-10.816-14.405zm-19.184 156.002c0 121.076-79.971 228.917-195 263.767-115.029-34.851-195-142.691-195-263.767v-130.334l195-56.643 195 56.643z"/></g></svg>