<?xml version="1.0"?>
<svg xmlns="http://www.w3.org/2000/svg" id="Icons" viewBox="0 0 60 60" width="512" height="512"><path d="M56,0H4A4,4,0,0,0,0,4V56a4,4,0,0,0,4,4H56a4,4,0,0,0,4-4V4A4,4,0,0,0,56,0Zm2,56a2,2,0,0,1-2,2H4a2,2,0,0,1-2-2V4A2,2,0,0,1,4,2H56a2,2,0,0,1,2,2Z"/><path d="M54,8H6a2,2,0,0,0-2,2V54a2,2,0,0,0,2,2H54a2,2,0,0,0,2-2V10A2,2,0,0,0,54,8Zm0,46H6V10H54Z"/><path d="M35,31H49a3,3,0,0,0,3-3V16a3,3,0,0,0-3-3H35a3,3,0,0,0-3,3V28A3,3,0,0,0,35,31ZM34,16a1,1,0,0,1,1-1H49a1,1,0,0,1,1,1V28a1,1,0,0,1-1,1H35a1,1,0,0,1-1-1Z"/><path d="M11,31H25a3,3,0,0,0,3-3V16a3,3,0,0,0-3-3H11a3,3,0,0,0-3,3V28A3,3,0,0,0,11,31Zm5-10a2,2,0,1,1,2,2A2,2,0,0,1,16,21Zm2,4a4,4,0,0,1,4,4H14A4,4,0,0,1,18,25Zm-8-9a1,1,0,0,1,1-1H25a1,1,0,0,1,1,1V28a1,1,0,0,1-1,1H24a6,6,0,0,0-3.107-5.253,4,4,0,1,0-5.786,0A6,6,0,0,0,12,29H11a1,1,0,0,1-1-1Z"/><path d="M35,51H49a3,3,0,0,0,3-3V36a3,3,0,0,0-3-3H35a3,3,0,0,0-3,3V48A3,3,0,0,0,35,51ZM34,36a1,1,0,0,1,1-1H49a1,1,0,0,1,1,1V48a1,1,0,0,1-1,1H35a1,1,0,0,1-1-1Z"/><path d="M11,51H25a3,3,0,0,0,3-3V36a3,3,0,0,0-3-3H11a3,3,0,0,0-3,3V48A3,3,0,0,0,11,51ZM10,36a1,1,0,0,1,1-1H25a1,1,0,0,1,1,1V48a1,1,0,0,1-1,1H11a1,1,0,0,1-1-1Z"/><path d="M6,6H7A1,1,0,0,0,7,4H6A1,1,0,0,0,6,6Z"/><path d="M11,6h1a1,1,0,0,0,0-2H11a1,1,0,0,0,0,2Z"/><path d="M16,6h1a1,1,0,0,0,0-2H16a1,1,0,0,0,0,2Z"/><path d="M48,6h6a1,1,0,0,0,0-2H48a1,1,0,0,0,0,2Z"/><path d="M39,21v4a1,1,0,0,0,2,0V19a1,1,0,0,0-1.707-.707l-1,1A1,1,0,0,0,39,21Z"/><path d="M44,21v4a1,1,0,0,0,2,0V19a1,1,0,0,0-1.707-.707l-1,1A1,1,0,0,0,44,21Z"/><path d="M18,47a4.981,4.981,0,0,0,3.5-1.438c.011-.01.026-.014.037-.025s.015-.026.025-.037A4.994,4.994,0,1,0,18,47Zm3-5a2.951,2.951,0,0,1-.3,1.285l-1.7-1.7v-2.4A3,3,0,0,1,21,42Zm-4-2.816V42a1,1,0,0,0,.293.707L19.285,44.7A2.951,2.951,0,0,1,18,45a2.993,2.993,0,0,1-1-5.816Z"/><path d="M39,43h2v2a1,1,0,0,0,2,0V43h2a1,1,0,0,0,0-2H43V39a1,1,0,0,0-2,0v2H39a1,1,0,0,0,0,2Z"/></svg>
