<svg id="Layer_1_1_" enable-background="new 0 0 64 64" height="512" viewBox="0 0 64 64" width="512" xmlns="http://www.w3.org/2000/svg"><path d="m26 23c-8.271 0-15 6.729-15 15s6.729 15 15 15 15-6.729 15-15-6.729-15-15-15zm7.343 25.717-.976-1.691-1.732 1 .973 1.684c-1.415.68-2.966 1.113-4.606 1.239v-2.949h-2v2.949c-1.64-.126-3.192-.558-4.606-1.239l.973-1.684-1.732-1-.976 1.691c-1.321-.908-2.466-2.053-3.375-3.375l1.691-.976-1-1.732-1.684.973c-.68-1.415-1.113-2.966-1.239-4.606h2.946v-2h-2.949c.126-1.64.558-3.192 1.239-4.606l1.684.973 1-1.732-1.691-.976c.908-1.321 2.053-2.466 3.375-3.375l.976 1.691 1.732-1-.973-1.684c1.415-.68 2.966-1.113 4.606-1.239v2.947h2v-2.949c1.64.126 3.192.558 4.606 1.239l-.973 1.684 1.732 1 .976-1.691c1.321.908 2.466 2.053 3.375 3.375l-1.691.976 1 1.732 1.684-.973c.68 1.415 1.113 2.966 1.239 4.606h-2.947v2h2.949c-.126 1.64-.558 3.192-1.239 4.606l-1.684-.973-1 1.732 1.691.976c-.908 1.324-2.053 2.469-3.374 3.377z"/><path d="m27 30h-2v8c0 .352.185.677.485.857l5 3 1.029-1.715-4.514-2.708z"/><path d="m49.6 1.2c-.303-.229-.709-.264-1.047-.095-.339.17-.553.516-.553.895v4h-38v2h39c.553 0 1-.447 1-1v-3l9.389 7.041-9.389 7.824v-3.865c0-.553-.447-1-1-1h-23c-13.233 0-24 10.767-24 24s10.767 24 24 24v-1l.021 1 .123-.001v-2l-.148.001c-12.129-.002-21.996-9.87-21.996-22 0-12.131 9.869-22 22-22h22v5c0 .388.225.741.576.905.35.165.766.112 1.064-.137l12-10c.234-.196.367-.488.359-.794s-.155-.591-.4-.774z"/><path d="m36.242 59.711c.632-.3 1.252-.627 1.844-.972l-1.008-1.729c-.543.317-1.112.617-1.693.894z"/><path d="m38.684 55.978 1.156 1.633c.564-.4 1.119-.829 1.648-1.276l-1.291-1.527c-.485.409-.994.802-1.513 1.17z"/><path d="m47.262 43.673 1.932.516c.179-.667.329-1.353.449-2.038l-1.971-.344c-.11.628-.247 1.255-.41 1.866z"/><path d="m47.918 39.91 1.992.172c.06-.69.09-1.391.09-2.082h-2c0 .635-.027 1.277-.082 1.91z"/><path d="m44.055 50.574 1.639 1.148c.394-.562.771-1.155 1.12-1.764l-1.734-.996c-.32.557-.665 1.099-1.025 1.612z"/><path d="m45.959 47.266 1.814.842c.292-.63.561-1.278.796-1.928l-1.879-.684c-.216.596-.462 1.192-.731 1.77z"/><path d="m30.299 61.616-.357-1.969c-.616.112-1.254.199-1.895.259l.186 1.992c.698-.065 1.393-.16 2.066-.282z"/><path d="m33.627 58.643c-.599.221-1.211.417-1.821.584l.527 1.93c.666-.183 1.334-.396 1.985-.637z"/><path d="m41.603 53.509 1.418 1.412c.485-.488.958-1.007 1.406-1.542l-1.535-1.283c-.411.491-.844.966-1.289 1.413z"/><path d="m2 6h2v2h-2z"/><path d="m6 6h2v2h-2z"/></svg>