<svg id="Layer_1" enable-background="new 0 0 500 500" height="512" viewBox="0 0 500 500" width="512" xmlns="http://www.w3.org/2000/svg"><path clip-rule="evenodd" d="m478.62 38.2h-82.58l8.66 14.99c1.87 3.25.75 7.39-2.5 9.26l-99.57 57.49c-2.5 1.44-5.54 1.1-7.65-.62l-47.66-36.19-161.38 111.16 153.52-75.12c2.52-1.23 5.42-.76 7.42.96l49.79 43 122.76-70.88c3.24-1.86 7.37-.75 9.24 2.48l.01-.01 8.65 14.99 20.65-35.76-.01-.01zm-41.28-13.57h52.66c1.28-.07 2.59.21 3.78.9 3.25 1.88 4.35 6.04 2.47 9.28l-26.52 45.93-.01-.01-26.3 45.56c-.57 1.16-1.48 2.16-2.68 2.86-3.25 1.88-7.4.77-9.28-2.47l-11.14-19.29-120.72 69.71c-2.47 1.62-5.81 1.48-8.15-.55l-50.05-43.22-231.33 113.18c-3.01 1.66-6.86.8-8.86-2.09-2.13-3.08-1.36-7.31 1.73-9.44l240.7-165.8.01.01c2.34-1.62 5.55-1.64 7.95.18l48.16 36.57 89.8-51.85-11.03-19.1c-.65-1.04-1.02-2.26-1.02-3.57 0-3.75 3.04-6.78 6.78-6.78zm-423.83 289.47h44.03c3.76 0 6.81 3.05 6.81 6.81v84.11c0 3.76-3.05 6.81-6.81 6.81h-44.03c-3.76 0-6.81-3.05-6.81-6.81v-84.11c0-3.76 3.05-6.81 6.81-6.81zm37.22 13.62h-30.41v70.49h30.41zm175.58-108.65h-30.41v179.13h30.41zm-37.22-13.62c-3.76 0-6.81 3.05-6.81 6.81v192.75c0 3.76 3.05 6.81 6.81 6.81h44.03c3.76 0 6.81-3.05 6.81-6.81v-192.75c0-3.76-3.05-6.81-6.81-6.81zm-87.79 56.87h44.03c3.76 0 6.81 3.05 6.81 6.81v135.88c0 3.76-3.05 6.81-6.81 6.81h-44.03c-3.76 0-6.81-3.05-6.81-6.81v-135.88c0-3.76 3.05-6.81 6.81-6.81zm37.22 13.62h-30.41v122.26h30.41zm-125.01 158.47h479.67c3.76 0 6.81 3.05 6.81 6.81v27.35c0 3.76-3.05 6.81-6.81 6.81h-479.67c-3.76 0-6.81-3.05-6.81-6.81v-27.35c0-3.76 3.05-6.81 6.81-6.81zm472.86 13.62h-466.05v13.73h466.05zm-93.81-191.24c1.88-3.25 6.04-4.35 9.28-2.47 3.25 1.88 4.35 6.04 2.47 9.28l-18.33 31.74c-1.88 3.25-6.04 4.35-9.28 2.47l-47.88-27.65c-3.25-1.88-4.35-6.04-2.47-9.28 1.88-3.25 6.04-4.35 9.28-2.47l41.99 24.24zm-5.64-46.81v6.23c0 3.76-3.05 6.81-6.81 6.81s-6.81-3.05-6.81-6.81v-6.23c-10.05.82-19.59 3.46-28.3 7.57l3.11 5.39c1.88 3.25.77 7.4-2.47 9.28-3.25 1.88-7.4.77-9.28-2.47l-3.12-5.4c-4.04 2.81-7.82 5.97-11.29 9.44s-6.63 7.25-9.44 11.3l5.38 3.11c3.25 1.87 4.37 6.01 2.5 9.26s-6.01 4.37-9.26 2.5l-5.41-3.12c-4.12 8.71-6.76 18.27-7.58 28.34h6.23c3.75 0 6.78 3.04 6.78 6.78s-3.04 6.78-6.78 6.78h-6.23c.82 10.06 3.45 19.61 7.57 28.32l5.39-3.11c3.25-1.88 7.4-.77 9.28 2.47 1.88 3.25.77 7.4-2.47 9.28l-5.4 3.12c2.81 4.04 5.97 7.82 9.44 11.29s7.25 6.63 11.3 9.44l3.11-5.38c1.87-3.25 6.01-4.37 9.26-2.5s4.37 6.01 2.5 9.26l-3.12 5.41c8.71 4.12 18.25 6.75 28.31 7.58v-6.23c0-3.76 3.05-6.81 6.81-6.81s6.81 3.05 6.81 6.81v6.23c10.05-.82 19.59-3.46 28.3-7.57l-3.11-5.39c-1.88-3.25-.77-7.4 2.47-9.28 3.25-1.88 7.4-.77 9.28 2.47l3.12 5.4c4.04-2.81 7.82-5.97 11.29-9.44s6.63-7.25 9.44-11.3l-5.38-3.11c-3.25-1.87-4.37-6.01-2.5-9.26s6.01-4.37 9.26-2.5l5.41 3.12c4.12-8.71 6.76-18.27 7.58-28.34h-6.23c-3.75 0-6.78-3.04-6.78-6.78s3.04-6.78 6.78-6.78h6.23c-.82-10.06-3.45-19.61-7.57-28.32l-5.39 3.11c-3.25 1.88-7.4.77-9.28-2.47-1.88-3.25-.77-7.4 2.47-9.28l5.4-3.12c-2.81-4.04-5.97-7.82-9.44-11.29s-7.25-6.63-11.3-9.44l-3.11 5.38c-1.87 3.25-6.01 4.37-9.26 2.5s-4.37-6.01-2.5-9.26l3.12-5.41c-8.71-4.12-18.26-6.76-28.31-7.58zm-74.6 14.18c-17.35 17.35-28.08 41.31-28.08 67.78s10.73 50.44 28.08 67.78c17.35 17.35 41.31 28.08 67.78 28.08s50.44-10.73 67.78-28.08c17.35-17.35 28.08-41.31 28.08-67.78s-10.73-50.44-28.08-67.78c-17.35-17.35-41.31-28.08-67.78-28.08-26.46 0-50.43 10.73-67.78 28.08zm67.79-38.48c29.34 0 55.91 11.89 75.14 31.12s31.12 45.8 31.12 75.14-11.89 55.91-31.12 75.14-45.8 31.12-75.14 31.12-55.91-11.89-75.14-31.12-31.12-45.8-31.12-75.14 11.89-55.91 31.12-75.14 45.79-31.12 75.14-31.12zm-84.77 21.49c21.69-21.69 51.67-35.11 84.77-35.11s63.07 13.42 84.77 35.11c21.69 21.69 35.11 51.67 35.11 84.77s-13.42 63.07-35.11 84.77c-21.69 21.69-51.67 35.11-84.77 35.11s-63.07-13.42-84.77-35.11c-21.69-21.69-35.11-51.67-35.11-84.77-.01-33.1 13.41-63.07 35.11-84.77z" fill="rgb(0,0,0)" fill-rule="evenodd"/></svg>