<svg id="Layer_3" enable-background="new 0 0 64 64" height="512" viewBox="0 0 64 64" width="512" xmlns="http://www.w3.org/2000/svg"><g><path d="m32.859 44.868-1.982.264c.082.615.123 1.243.123 1.868h2c0-.712-.047-1.43-.141-2.132z"/><path d="m60 7h-1v-3c0-1.654-1.346-3-3-3h-2c-1.654 0-3 1.346-3 3v3h-28v-3c0-1.654-1.346-3-3-3h-2c-1.654 0-3 1.346-3 3v3h-1c-1.654 0-3 1.346-3 3v22.178c-5.856 2.379-10 8.122-10 14.822 0 8.822 7.178 16 16 16 6.618 0 12.423-4.099 14.821-10h28.179c1.654 0 3-1.346 3-3v-40c0-1.654-1.346-3-3-3zm-7-3c0-.551.448-1 1-1h2c.552 0 1 .449 1 1v8c0 .551-.448 1-1 1h-2c-.552 0-1-.449-1-1zm-36 0c0-.551.448-1 1-1h2c.552 0 1 .449 1 1v8c0 .551-.448 1-1 1h-2c-.552 0-1-.449-1-1zm13.877 44.868c-.922 6.916-6.888 12.132-13.877 12.132-7.72 0-14-6.28-14-14s6.28-14 14-14c6.278 0 11.828 4.222 13.497 10.266l1.928-.532c-1.907-6.909-8.25-11.734-15.425-11.734-1.383 0-2.719.195-4 .527v-21.527c0-.551.448-1 1-1h1v3c0 1.654 1.346 3 3 3h2c1.654 0 3-1.346 3-3v-3h28v3c0 1.654 1.346 3 3 3h2c1.654 0 3-1.346 3-3v-3h1c.552 0 1 .449 1 1v9h-42v2h42v19.88l-3.187-4.461c-.161-.227-.41-.375-.686-.411-.278-.034-.556.045-.769.224l-3.358 2.799v-4.031h6v-2h-7c-.553 0-1 .448-1 1v6.698l-12.362 10.302h-6.156c.158-.61.293-1.23.378-1.868zm25.935-10.41 3.661 5.126-16.685 7.416h-2.026zm3.188 12.542h-11.288l12.288-5.461v4.461c0 .551-.448 1-1 1z"/><path d="m15 19h2v2h-2z"/><path d="m23 30v-6c0-.552-.447-1-1-1h-6c-.553 0-1 .448-1 1v6c0 .552.447 1 1 1h1 5c.553 0 1-.448 1-1zm-2-1h-4v-4h4z"/><path d="m34 31c.553 0 1-.448 1-1v-6c0-.552-.447-1-1-1h-6c-.553 0-1 .448-1 1v6c0 .552.447 1 1 1zm-5-6h4v4h-4z"/><path d="m40 31h6c.553 0 1-.448 1-1v-6c0-.552-.447-1-1-1h-6c-.553 0-1 .448-1 1v6c0 .552.447 1 1 1zm1-6h4v4h-4z"/><path d="m52 31h6c.553 0 1-.448 1-1v-6c0-.552-.447-1-1-1h-6c-.553 0-1 .448-1 1v6c0 .552.447 1 1 1zm1-6h4v4h-4z"/><path d="m33 41h2v-7c0-.552-.447-1-1-1h-6v2h5z"/><path d="m40 41h6c.553 0 1-.448 1-1v-6c0-.552-.447-1-1-1h-6c-.553 0-1 .448-1 1v6c0 .552.447 1 1 1zm1-6h4v4h-4z"/><path d="m17 35c-6.617 0-12 5.383-12 12s5.383 12 12 12 12-5.383 12-12-5.383-12-12-12zm9.949 13c-.2 2.008-.998 3.842-2.211 5.324l-1.374-1.374-1.414 1.414 1.374 1.374c-1.482 1.213-3.316 2.011-5.324 2.211v-1.949h-2v1.949c-2.008-.2-3.843-.998-5.324-2.211l1.374-1.374-1.414-1.414-1.374 1.374c-1.214-1.482-2.011-3.316-2.211-5.324h1.949v-2h-1.949c.2-2.008.998-3.842 2.211-5.324l1.374 1.374 1.414-1.414-1.374-1.374c1.482-1.213 3.316-2.011 5.324-2.211v1.949h2v-1.949c2.008.2 3.843.998 5.324 2.211l-1.374 1.374 1.414 1.414 1.374-1.374c1.213 1.482 2.011 3.316 2.211 5.324h-1.949v2z"/><path d="m18 40h-2v7c0 .552.447 1 1 1h5v-2h-4z"/></g></svg>