<svg id="Layer_1" enable-background="new 0 0 512 512" viewBox="0 0 512 512" xmlns="http://www.w3.org/2000/svg"><g><path d="m473.209 217.209c0 119.969-97.25 217.219-217.209 217.219-3.905 0-7.779-.103-11.632-.309-28.22-1.484-55.008-8.366-79.364-19.627-74.512-34.412-126.213-109.81-126.213-197.283 0-116.744 92.109-211.965 207.607-216.993 1.978-.093 3.967-.155 5.965-.185 1.206-.021 2.421-.031 3.637-.031 119.959 0 217.209 97.251 217.209 217.209z" fill="#5972a5"/><path d="m186.423 310.307c13.394 57.831 2.524 89.4-21.42 104.184-74.511-34.411-126.212-109.809-126.212-197.282 0-116.744 92.109-211.965 207.607-216.993-27.984 25.83-104.7 117.012-59.975 310.091z" fill="#3b5a9b"/><path d="m434.428 217.209c0 98.549-79.89 178.428-178.428 178.428-5.966 0-11.859-.288-17.68-.865-17.412-1.71-34.083-5.924-49.66-12.281-35.391-14.435-65.105-39.904-84.877-72.142v-.01l34.171-201.497 73.26-64.374c3.163-.824 6.367-1.556 9.602-2.205 11.375-2.277 23.141-3.472 35.185-3.472 98.538 0 178.427 79.88 178.427 178.418z" fill="#f3f5fc"/><path d="m186.423 310.307c7.233 31.218 7.388 54.781 2.236 72.183-65.157-26.572-111.088-90.564-111.088-165.282 0-83.074 56.77-152.887 133.641-172.741-28.807 48.25-55.584 132.89-24.789 265.84z" fill="#e8ecf9"/><path d="m209.047 193.909c21.145 0 38.349-17.604 38.349-39.243s-17.203-39.242-38.349-39.242c-5.163 0-10.088 1.056-14.588 2.957 10.675-19.723 27.973-25.314 29.054-25.646 4.071-1.219 6.396-5.5 5.196-9.582-1.203-4.094-5.497-6.439-9.594-5.234-.511.15-12.655 3.812-24.594 15.221-10.869 10.386-23.824 29.491-23.824 61.526 0 21.639 17.203 39.243 38.35 39.243zm0-63.03c12.624 0 22.894 10.671 22.894 23.788s-10.27 23.788-22.894 23.788-22.895-10.671-22.895-23.788 10.27-23.788 22.895-23.788z" fill="#fd7a6e"/><path d="m302.953 193.909c21.146 0 38.35-16.036 38.35-35.747v-44.81c0-19.711-17.203-35.747-38.35-35.747-21.145 0-38.349 16.036-38.349 35.747v44.81c.001 19.711 17.204 35.747 38.349 35.747zm-22.894-80.557c0-11.189 10.27-20.292 22.894-20.292s22.895 9.103 22.895 20.292v44.81c0 11.189-10.271 20.292-22.895 20.292s-22.894-9.103-22.894-20.292z" fill="#fd7a6e"/><path d="m318.887 211.239c-3.389-2.599-8.238-1.96-10.835 1.426l-17.055 22.226-17.237-22.392c-2.603-3.381-7.455-4.014-10.837-1.41-3.382 2.603-4.013 7.455-1.41 10.837l21.758 28.266-.084 29.059c-.012 4.268 3.437 7.737 7.705 7.75h.022c4.257 0 7.715-3.445 7.727-7.705l.084-29.09 21.588-28.131c2.597-3.387 1.959-8.238-1.426-10.836z" fill="#fd7a6e"/><path d="m237.382 215.27c-1.374-3.515-4.684-5.785-8.433-5.785-.004 0-.008 0-.012 0-3.754.005-7.062 2.284-8.429 5.806l-22.2 61.352c-1.452 4.013.625 8.443 4.637 9.895 4.013 1.452 8.443-.624 9.896-4.637l3.668-10.14h24.71l3.628 10.119c1.44 4.017 5.866 6.105 9.881 4.666 4.017-1.44 6.106-5.864 4.666-9.882zm-15.28 41.037 6.82-18.849 6.758 18.849z" fill="#fd7a6e"/><path d="m154.945 209.485h-19.187c-4.28 0-7.738 3.479-7.727 7.744l.138 62.061c.01 4.261 3.467 7.71 7.727 7.71h.053l19.681-.137c19.933-.319 34.401-16.561 34.401-38.62-.001-23.183-14.101-38.758-35.086-38.758zm.508 61.924-11.848.082-.104-46.552h11.443c18.215 0 19.631 17.836 19.631 23.303.001 11.379-5.934 22.956-19.122 23.167z" fill="#f85647"/><path d="m366.334 241.56-15.527-6.488c-2.209-1.04-2.326-3.213-2.273-4.107.056-.941.56-4.113 4.686-5.404 8.146-2.552 15.777 3.695 16.006 3.886 3.216 2.77 8.067 2.429 10.862-.772 2.808-3.214 2.478-8.096-.737-10.903-.569-.499-14.17-12.148-30.748-6.96-8.881 2.78-14.964 10.328-15.496 19.23-.496 8.289 3.99 15.808 11.43 19.156.063.029.128.056.192.083l15.746 6.58c.07.03.142.058.214.086 2.62 1.004 8.62 3.856 7.734 8.637-.633 3.422-4.604 6.961-10.155 6.961-5.81 0-11.414-2.449-14.992-6.551-2.806-3.216-7.688-3.549-10.903-.744-3.217 2.805-3.55 7.686-.745 10.903 6.473 7.418 16.431 11.847 26.642 11.847 12.588 0 23.25-8.244 25.352-19.603 1.601-8.651-2.106-19.97-17.288-25.837z" fill="#fd7a6e"/><path d="m512 349.088-12.343 63.58 12.343 60.541v7.882c0 17.072-13.837 30.909-30.909 30.909h-375.093c-2.844 0-5.152-2.308-5.152-5.152v-191.39c0-2.535 1.824-4.636 4.234-5.069l47.868 6.532 33.474-6.615h294.667c17.072 0 30.909 13.837 30.909 30.909v7.873z" fill="#bed6f1"/><path d="m233.107 411.154c0 40.409-18.123 76.583-46.684 100.846h-80.425c-2.845 0-5.152-2.306-5.152-5.152v-191.39c0-2.845 2.306-5.152 5.152-5.152h80.425c28.56 24.255 46.684 60.439 46.684 100.848z" fill="#93bce8"/><path d="m512 349.088v124.121h-294.328l-21.45-4.502-15.878 4.502h-63.982v-124.121h63.972l25.923 6.852 11.415-6.852z" fill="#f3f5fc"/><path d="m233.107 411.154c0 22.43-5.585 43.551-15.434 62.055h-101.31v-124.121h101.31c9.849 18.504 15.434 39.636 15.434 62.066z" fill="#e8ecf9"/><g fill="#5972a5"><path d="m269.937 406.356c2.273-3.445 3.6-7.549 3.6-11.955 0-12.135-10.026-22.007-22.35-22.007h-18.459c-4.268 0-7.727 3.46-7.727 7.727v62.061c0 4.266 3.462 7.727 7.727 7.727h.026l21.657-.074c13.693 0 24.832-10.96 24.832-24.432-.001-7.694-3.639-14.565-9.306-19.047zm-18.75-18.507c3.802 0 6.895 2.939 6.895 6.553s-3.093 6.553-6.921 6.553l-10.706.017v-13.123zm3.197 46.532-13.929.047v-17.983l13.955-.02c5.171 0 9.377 4.027 9.377 8.978s-4.206 8.978-9.403 8.978z"/><path d="m423.63 427.305c-3.379-2.606-8.23-1.983-10.838 1.397-2.859 3.699-6.779 5.753-11.872 5.753-11.485 0-20.828-10.454-20.828-23.303s9.343-23.303 20.828-23.303c4.066 0 8.005 1.314 11.393 3.801 3.442 2.526 8.277 1.784 10.802-1.656s1.784-8.276-1.656-10.802c-6.058-4.447-13.161-6.798-20.539-6.798-20.006 0-36.283 17.386-36.283 38.757s16.277 38.758 36.283 38.758c9.553 0 18.111-3.995 24.107-11.767 2.606-3.378 1.982-8.23-1.397-10.837z"/><path d="m486.703 437.001-24.501-27.109 22.453-23.669c2.937-3.096 2.808-7.987-.288-10.924-3.097-2.937-7.987-2.809-10.925.288l-15.776 16.63v-12.095c0-4.268-3.459-7.727-7.727-7.727s-7.727 3.46-7.727 7.727v62.061c0 4.268 3.459 7.727 7.727 7.727s7.727-3.46 7.727-7.727v-14.259l17.57 19.44c2.863 3.167 7.747 3.413 10.915.552 3.166-2.862 3.413-7.749.552-10.915z"/><path d="m330.231 378.179c-1.374-3.515-4.684-5.785-8.433-5.785-.003 0-.006 0-.009 0-3.752.004-7.061 2.28-8.431 5.801l-22.201 61.358c-1.452 4.013.625 8.443 4.637 9.895 4.013 1.45 8.444-.624 9.896-4.638l3.668-10.14h24.708l3.627 10.119c1.442 4.02 5.868 6.106 9.882 4.666 4.017-1.44 6.106-5.864 4.666-9.882zm-15.28 41.037 6.82-18.85 6.757 18.85z"/></g><path d="m201.693 411.154c0 55.698-45.148 100.846-100.846 100.846-55.699 0-100.847-45.148-100.847-100.846 0-49.96 36.328-91.44 84.011-99.435 5.471-.938 11.096-1.411 16.836-1.411 55.697-.001 100.846 45.147 100.846 100.846z" fill="#fcf5af"/><path d="m100.846 512c-55.698 0-100.846-45.148-100.846-100.846 0-49.96 36.328-91.44 84.011-99.435-21.42 27.262-80.652 119.072 16.835 200.281z" fill="#fce3a0"/><path d="m108.576 400.93v-36.428c6.107 1.42 9.734 4.346 10.051 4.609 3.215 2.76 8.059 2.418 10.851-.779 2.808-3.214 2.479-8.095-.734-10.903-.45-.393-7.924-6.767-20.167-8.636v-7.459c0-4.268-3.459-7.727-7.727-7.727s-7.727 3.46-7.727 7.727v7.772c-15.539 2.924-24.806 13.325-27.145 26.14-1.958 10.73 1.732 21.041 9.629 26.909 4.384 3.257 9.877 6.232 17.516 9.401v46.026c-7.065-.438-11.556-2.016-19.234-6.774-3.626-2.247-8.39-1.13-10.638 2.498s-1.13 8.391 2.498 10.639c10.59 6.563 17.735 8.614 27.374 9.105v7.921c0 4.268 3.459 7.727 7.727 7.727s7.727-3.46 7.727-7.727v-8.664c17.376-3.581 28.368-17.65 30.583-31.522 3.494-21.885-9.705-32.425-30.584-39.855zm-23.754-11.181c-7.157-5.317-4.436-21.164 7.963-24.702.113-.032.223-.058.336-.089v29.666c-3.158-1.543-5.999-3.167-8.299-4.875zm39.076 48.598c-1.155 7.228-6.343 14.889-15.322 17.967v-39.031c12.61 4.283 16.792 11.858 15.322 21.064z" fill="#5972a5"/></g><g/><g/><g/><g/><g/><g/><g/><g/><g/><g/><g/><g/><g/><g/><g/></svg>