<svg id="Capa_1" enable-background="new 0 0 512.057 512.057" height="512" viewBox="0 0 512.057 512.057" width="512" xmlns="http://www.w3.org/2000/svg"><g><path d="m126.032 447.043c-13.254.492-13.244 19.512 0 20h30c13.254-.492 13.244-19.512 0-20h-5v-70c0-5.522-4.478-10-10-10h-14.999c-13.254.492-13.244 19.512 0 20h4.999v60z"/><path d="m206.032 467.043c16.542 0 30-13.458 30-30v-40c-1.513-39.754-58.501-39.724-60 0v40c0 16.542 13.458 30 30 30zm-10-70c.505-13.251 19.5-13.241 20 0v40c-.505 13.251-19.5 13.241-20 0z"/><path d="m281.032 467.043c16.542 0 30-13.458 30-30v-40c-1.513-39.754-58.501-39.724-60 0v40c0 16.542 13.458 30 30 30zm-10-70c.505-13.251 19.5-13.241 20 0v40c-.505 13.251-19.5 13.241-20 0z"/><path d="m336.123 465.759c4.725 2.683 10.895 1.046 13.618-3.813l45-80c2.708-4.813 1-10.91-3.813-13.618-4.812-2.709-10.91-1-13.618 3.813l-45 80c-2.709 4.813-1.001 10.91 3.813 13.618z"/><path d="m341.032 387.044c13.254-.492 13.244-19.512 0-20h-.007c-13.255.494-13.237 19.514.007 20z"/><path d="m386.025 447.043h-.008c-5.522 0-9.996 4.478-9.996 10 .492 13.248 19.515 13.249 20.004 0 0-5.522-4.478-10-10-10z"/><path d="m493.021 372.043 18.761-82.789c.672-2.965-.042-6.075-1.939-8.451-1.897-2.375-4.772-3.759-7.813-3.759h-47.055c47.12-132.543-58.04-279.412-198.948-277.001-140.882-2.416-246.097 144.472-198.944 277.001h-47.055c-3.041 0-5.916 1.384-7.813 3.759-1.897 2.376-2.611 5.486-1.939 8.451l18.761 82.789-18.761 82.79c-1.528 6.034 3.53 12.367 9.753 12.21h56v35c0 5.522 4.478 10 10 10h360c5.522 0 10-4.478 10-10v-35h56.001c6.223.157 11.281-6.176 9.753-12.21zm-236.993-352.002c153.849-1.173 245 178.634 153.478 302.002h-306.955c-91.547-123.397-.318-303.191 153.477-302.002zm-233.481 427.002 16.495-72.79c.329-1.455.329-2.965 0-4.42l-16.495-72.789h42.415c3.911 8.619 8.4 16.978 13.442 24.999h-2.377c-5.522 0-10 4.478-10 10v115zm403.481 45h-340v-150h340zm46.986-117.79 16.495 72.79h-43.481v-115c0-5.522-4.478-10-10-10h-2.376c5.042-8.021 9.531-16.38 13.442-24.999h42.415l-16.495 72.789c-.329 1.455-.329 2.965 0 4.42z"/><path d="m171.028 276.042h140c27.57 0 50-22.43 50-50v-60c0-16.542-13.458-29.999-30-29.999h-50c0-27.57-22.43-50-50-50h-10c-5.522 0-10 4.478-10 10v60h-40c-5.522 0-10 4.478-10 10v99.999c0 5.522 4.477 10 10 10zm60-169.999c16.542 0 30 13.458 30 30v10c0 5.522 4.478 10 10 10h60c5.514 0 10 4.485 10 9.999v60c0 16.542-13.458 30-30 30h-80zm-50 70h30v79.999h-30z"/></g></svg>