<svg id="Layer_1" viewBox="0 0 30 30" xmlns="http://www.w3.org/2000/svg" data-name="Layer 1"><path d="m12.868 14.568a5.734 5.734 0 0 0 4.41-.061.75.75 0 0 0 -.593-1.378 4.263 4.263 0 1 1 2.577-3.916v.534.022a.213.213 0 0 0 0 .025.973.973 0 0 1 -.864 1.034.817.817 0 0 1 -.8-.835v-2.415a.75.75 0 0 0 -.75-.75.74.74 0 0 0 -.482.187 2.593 2.593 0 1 0 .143 4.3 2.364 2.364 0 0 0 1.928 1.009 2.479 2.479 0 0 0 2.323-2.563c0-.006 0-.011 0-.017v-.531a5.762 5.762 0 1 0 -7.894 5.355zm2.132-4.261a1.094 1.094 0 1 1 1.1-1.094 1.095 1.095 0 0 1 -1.1 1.094z"/><path d="m29.606 10.161a2.759 2.759 0 0 0 -.493-.9l-4.024-4.834v-1.418a2.753 2.753 0 0 0 -2.75-2.75h-14.682a2.753 2.753 0 0 0 -2.75 2.75v1.424l-4.021 4.829a2.757 2.757 0 0 0 -.636 1.759v13.97a4.756 4.756 0 0 0 4.75 4.75h20a4.722 4.722 0 0 0 3.3-1.341l.013-.009a4.734 4.734 0 0 0 1.439-3.4v-13.97a2.73 2.73 0 0 0 -.128-.8c-.006-.021-.012-.039-.018-.06zm-1.939 16.678-8.949-7.761 9.532-7.266v13.179a3.22 3.22 0 0 1 -.583 1.848zm.255-16.664-2.833 2.159v-5.562zm-20.265-8.416h14.682a1.252 1.252 0 0 1 1.25 1.25v10.469l-6.029 4.6-.916-.8a2.534 2.534 0 0 0 -3.292 0l-.91.79-6.035-4.6v-10.459a1.252 1.252 0 0 1 1.25-1.25zm-5.322 25.083a3.224 3.224 0 0 1 -.585-1.851v-13.184l9.534 7.268zm2.572-14.516-2.826-2.154 2.826-3.4zm10.093 15.915h-10a3.205 3.205 0 0 1 -1.529-.4l10.862-9.425a1.026 1.026 0 0 1 1.329 0l10.87 9.425a3.207 3.207 0 0 1 -1.532.4z"/></svg>