<svg id="Capa_1" enable-background="new 0 0 512 512" height="512" viewBox="0 0 512 512" width="512" xmlns="http://www.w3.org/2000/svg"><g><path d="m300.001 497h15v15h-15z"/><path d="m226.354 429.5-11.903-71.422c6.751-6.962 10.549-16.244 10.549-26.078 0-20.678-16.822-37.5-37.5-37.5s-37.5 16.822-37.5 37.5c0 9.833 3.798 19.115 10.55 26.078l-11.904 71.422zm-38.854-120c12.406 0 22.5 10.093 22.5 22.5 0 6.812-3.04 13.185-8.34 17.484l-3.392 2.75 10.378 62.265h-42.293l10.378-62.265-3.392-2.751c-5.3-4.3-8.34-10.672-8.34-17.484.001-12.406 10.095-22.499 22.501-22.499z"/><path d="m165 242h15v15h-15z"/><path d="m195 242h15.001v15h-15.001z"/><path d="m473.375 384.07h-20.727v-59.141h-15v74.141h35.727z"/><path d="m394.057 384.095c-5.855 0-11.488-2.359-15.069-6.31l-5.036-5.558-11.116 10.073 5.036 5.557c6.377 7.037 16.165 11.238 26.185 11.238 12.523 0 23.04-7.995 25.007-19.01 1.48-8.293-2.279-19.125-17.271-24.656-7.253-2.675-14.007-5.589-16.099-6.504-1.56-1.263-1.507-3.018-1.402-3.75.147-1.025.894-3.532 4.637-4.66 8.227-2.479 15.87 3.487 16.191 3.743l5.707 4.797 9.652-11.482-5.741-4.826c-.56-.471-13.908-11.482-30.137-6.595-8.209 2.473-14.017 8.946-15.157 16.892-1.07 7.458 2.163 14.632 8.438 18.722.331.216.679.406 1.04.567.343.153 8.497 3.782 17.68 7.169 2.571.948 8.468 3.621 7.696 7.946-.585 3.268-4.574 6.647-10.241 6.647z"/><path d="m323.751 384.095c-5.855 0-11.488-2.359-15.069-6.31l-5.036-5.558-11.116 10.073 5.036 5.557c6.377 7.037 16.165 11.238 26.185 11.238 12.523 0 23.04-7.995 25.007-19.01 1.48-8.293-2.279-19.125-17.271-24.656-7.253-2.675-14.007-5.589-16.099-6.504-1.56-1.263-1.507-3.018-1.402-3.75.147-1.025.894-3.532 4.637-4.66 8.228-2.479 15.869 3.487 16.191 3.743l5.707 4.797 9.652-11.482-5.741-4.826c-.56-.471-13.908-11.482-30.137-6.595-8.209 2.473-14.017 8.946-15.157 16.892-1.07 7.458 2.163 14.632 8.438 18.722.331.216.679.406 1.04.567.343.153 8.497 3.782 17.68 7.169 2.571.948 8.468 3.621 7.696 7.946-.585 3.268-4.574 6.647-10.241 6.647z"/><path d="m512 279.5h-137v-67.5h-30v-54.5c0-41.903-16.429-81.409-46.259-111.24-29.831-29.831-69.337-46.26-111.24-46.26-41.904 0-81.411 16.428-111.241 46.259-29.831 29.83-46.26 69.337-46.26 111.241v54.5h-30v277.5c0 12.407 10.094 22.5 22.5 22.5h262.5v-15h-262.5c-4.136 0-7.5-3.365-7.5-7.5v-262.5h345v52.5h-80.501c-12.406 0-22.5 10.093-22.5 22.5v120c0 12.407 10.094 22.5 22.5 22.5h80.501v45c0 4.135-3.364 7.5-7.5 7.5h-22.499v15h22.499c12.406 0 22.5-10.093 22.5-22.5v-45h137zm-467-122c0-37.897 14.868-73.637 41.866-100.634 26.997-26.998 62.738-41.866 100.635-41.866 37.896 0 73.636 14.869 100.633 41.867 26.998 26.998 41.866 62.737 41.866 100.633v54.5h-30v-54.5c0-29.891-11.746-58.098-33.073-79.426-21.328-21.328-49.535-33.074-79.426-33.074-26.839 0-52.89 9.741-73.352 27.427l9.809 11.349c17.738-15.332 40.305-23.776 63.543-23.776 25.884 0 50.324 10.186 68.818 28.681 18.495 18.495 28.681 42.935 28.681 68.819v54.5h-195v-54.5c0-23.236 8.443-45.803 23.776-63.542l-11.349-9.809c-17.687 20.464-27.427 46.514-27.427 73.351v54.5h-30zm452 272h-217.501c-4.136 0-7.5-3.364-7.5-7.5v-120.001c0-4.135 3.364-7.5 7.5-7.5h217.501z"/></g></svg>