<svg id="Capa_1" enable-background="new 0 0 512 512" height="512" viewBox="0 0 512 512" width="512" xmlns="http://www.w3.org/2000/svg"><g><path d="m457 0h-402c-30.376 0-55 24.624-55 55v300c0 30.376 24.624 55 55 55h234.7v-.03l95.589 97.501c9.406 9.594 25.711 2.934 25.711-10.501v-86.97h46c30.376 0 55-24.624 55-55v-300c0-30.376-24.624-55-55-55zm25 355c0 13.807-11.193 25-25 25h-61c-8.284 0-15 6.716-15 15v65.243l-74.259-75.744c-2.821-2.878-6.681-4.499-10.711-4.499h-241.03c-13.807 0-25-11.193-25-25v-300c0-13.807 11.193-25 25-25h402c13.807 0 25 11.193 25 25z"/><path d="m68.5 150v-28.701h33.44v28.701c0 4.142 3.357 7.5 7.5 7.5s7.5-3.358 7.5-7.5v-70c0-4.142-3.357-7.5-7.5-7.5s-7.5 3.358-7.5 7.5v26.299h-33.44v-26.299c0-4.142-3.357-7.5-7.5-7.5s-7.5 3.358-7.5 7.5v70c0 4.142 3.357 7.5 7.5 7.5s7.5-3.358 7.5-7.5z"/><path d="m451 87.5c4.143 0 7.5-3.358 7.5-7.5s-3.357-7.5-7.5-7.5h-29.495c-4.143 0-7.5 3.358-7.5 7.5v70c0 4.142 3.357 7.5 7.5 7.5h29.495c4.143 0 7.5-3.358 7.5-7.5s-3.357-7.5-7.5-7.5h-21.995v-20h19.82c4.143 0 7.5-3.358 7.5-7.5s-3.357-7.5-7.5-7.5h-19.82v-20z"/><path d="m186.616 152.648c1.462 3.875 5.79 5.833 9.665 4.369 3.875-1.462 5.831-5.79 4.368-9.665l-26.046-69.017c-.025-.068-.052-.135-.079-.202-1.406-3.423-4.704-5.633-8.404-5.633-.002 0-.005 0-.007 0-3.703.003-7.002 2.219-8.403 5.646-.023.057-.046.113-.067.17l-26.284 69.014c-1.475 3.871.469 8.204 4.34 9.678.878.335 1.78.493 2.668.493 3.021 0 5.87-1.84 7.01-4.833l4.706-12.357h31.878zm-30.821-27.336 10.299-27.042 10.205 27.042z"/><path d="m393.298 157.441c4.142-.023 7.481-3.4 7.458-7.542-.023-4.128-3.376-7.458-7.499-7.458-.015 0-.028 0-.043 0-5.912.033-12.271.057-16.97.059v-62.5c0-4.142-3.357-7.5-7.5-7.5s-7.5 3.358-7.5 7.5v69.941c0 3.652 2.631 6.774 6.23 7.392.536.092.997.171 8.705.171 3.731 0 9.161-.019 17.119-.063z"/><path d="m252.339 108.515c-8.799-3.246-16.976-6.785-19.27-7.791-1.782-1.365-2.641-3.503-2.309-5.816.211-1.473 1.263-5.067 6.444-6.628 10.549-3.177 20.191 4.502 20.417 4.684 3.17 2.634 7.877 2.218 10.534-.943 2.665-3.17 2.256-7.901-.915-10.567-.64-.538-15.879-13.105-34.362-7.536-9.193 2.769-15.694 9.996-16.966 18.859-1.189 8.286 2.401 16.256 9.37 20.799.331.216.679.405 1.04.566.403.18 10.007 4.455 20.824 8.445 7.111 2.623 10.747 6.604 9.977 10.922-.789 4.419-6.039 8.989-13.459 8.989-7.305 0-14.346-2.958-18.836-7.913-2.782-3.071-7.525-3.302-10.594-.521-3.069 2.782-3.303 7.524-.521 10.594 7.286 8.04 18.482 12.84 29.951 12.84 14.146 0 26.017-8.98 28.226-21.353 1.654-9.26-2.614-21.382-19.551-27.63z"/><path d="m317.665 157.5c14.146 0 26.017-8.98 28.226-21.353 1.653-9.262-2.614-21.385-19.552-27.632-8.799-3.246-16.976-6.785-19.27-7.791-1.782-1.365-2.641-3.503-2.309-5.816.211-1.473 1.263-5.067 6.444-6.628 10.549-3.177 20.191 4.502 20.417 4.684 3.169 2.634 7.878 2.218 10.534-.943 2.665-3.17 2.256-7.901-.915-10.567-.64-.538-15.879-13.105-34.362-7.536-9.193 2.769-15.694 9.996-16.966 18.859-1.189 8.286 2.401 16.256 9.37 20.799.331.216.679.405 1.04.566.403.18 10.007 4.455 20.824 8.445 7.111 2.623 10.747 6.604 9.977 10.922-.789 4.419-6.039 8.989-13.459 8.989-7.305 0-14.346-2.958-18.836-7.913-2.782-3.071-7.526-3.302-10.594-.521-3.069 2.782-3.303 7.524-.521 10.594 7.287 8.042 18.483 12.842 29.952 12.842z"/><path d="m121.637 215c8.284 0 15-6.716 15-15s-6.716-15-15-15h-48.637c-8.284 0-15 6.716-15 15v120c0 8.284 6.716 15 15 15s15-6.716 15-15v-46.137h29.772c8.284 0 15-6.716 15-15s-6.716-15-15-15h-29.772v-28.863z"/><path d="m337.281 215c8.284 0 15-6.716 15-15s-6.716-15-15-15h-50.562c-8.284 0-15 6.716-15 15v120c0 8.284 6.716 15 15 15h50.562c8.284 0 15-6.716 15-15s-6.716-15-15-15h-35.562v-30h31.835c8.284 0 15-6.716 15-15s-6.716-15-15-15h-31.835v-30z"/><path d="m439 215c8.284 0 15-6.716 15-15s-6.716-15-15-15h-50.563c-8.284 0-15 6.716-15 15v120c0 8.284 6.716 15 15 15h50.563c8.284 0 15-6.716 15-15s-6.716-15-15-15h-35.563v-30h31.835c8.284 0 15-6.716 15-15s-6.716-15-15-15h-31.835v-30z"/><path d="m250.439 231.187c0-25.467-21.511-46.187-47.951-46.187h-31.888c-.007 0-.013.001-.02.001-.006 0-.013-.001-.019-.001-8.284 0-15 6.716-15 15v120c0 8.284 6.716 15 15 15s15-6.716 15-15v-33.969l38.619 43.879c2.965 3.369 7.104 5.09 11.266 5.09 3.52 0 7.055-1.231 9.904-3.74 6.219-5.473 6.823-14.951 1.35-21.17l-30.498-34.651c19.777-5.697 34.237-23.375 34.237-44.252zm-47.951 16.186c-3.902 0-10.546.027-16.752.057-.03-6.059-.058-12.495-.058-16.244 0-3.211-.016-9.851-.033-16.187h16.843c9.73 0 17.951 7.413 17.951 16.187s-8.22 16.187-17.951 16.187z"/></g></svg>