<svg id="Layer_1" viewBox="0 0 64 64" xmlns="http://www.w3.org/2000/svg"><path d="m16.856 18.176h18.19c.535 0 .969-.434.969-.969s-.434-.969-.969-.969h-18.19c-.535 0-.969.434-.969.969s.434.969.969.969z"/><path d="m16.856 23.411h7.058c.535 0 .969-.434.969-.969s-.434-.969-.969-.969h-7.058c-.535 0-.969.434-.969.969s.434.969.969.969z"/><path d="m59.106 1.726h-54.212c-2.147 0-3.894 1.746-3.894 3.893v42.007c0 2.147 1.747 3.894 3.894 3.894h22.973v4.71h-5.07c-1.869 0-3.391 1.521-3.391 3.391s1.521 3.391 3.391 3.391h18.406c1.869 0 3.391-1.521 3.391-3.391s-1.521-3.391-3.391-3.391h-5.07v-4.71h22.973c2.147 0 3.894-1.747 3.894-3.894v-42.006c0-2.147-1.747-3.893-3.894-3.893zm-54.212 1.938h54.212c1.079 0 1.956.877 1.956 1.956v37.161h-58.124v-37.161c0-1.078.877-1.956 1.956-1.956zm37.762 55.957c0 .801-.652 1.453-1.453 1.453h-18.406c-.801 0-1.453-.652-1.453-1.453s.652-1.453 1.453-1.453h18.406c.801 0 1.453.652 1.453 1.453zm-8.46-3.391h-4.392v-4.71h4.392zm24.91-6.648h-54.212c-1.079 0-1.956-.877-1.956-1.956v-2.907h58.124v2.907c0 1.079-.877 1.956-1.956 1.956z"/><path d="m14.271 34.104c1.051.053 2.102.088 3.153.123l.455.016.069.185c.391 1.041.799 2.094 1.211 3.153.369.949.74 1.903 1.101 2.86.124.327.414.562.76.615.049.008.098.011.147.011.295 0 .577-.135.762-.371 1.367-1.742 2.858-3.533 4.004-4.898l1.143-1.357c5.423.027 10.717-.085 15.751-.337 2.057-.109 3.935-1.847 4.187-3.878.37-3.09.506-6.237.416-9.363l7.733-7.733 1.837-1.837c.988-.988.988-2.595 0-3.584l-1.61-1.61c-.989-.988-2.596-.987-3.584 0l-1.837 1.837-4.454 4.454c-.766-.683-1.728-1.111-2.691-1.162-9.473-.476-19.079-.476-28.554 0-2.057.109-3.936 1.846-4.187 3.878-.601 5.016-.601 10.103 0 15.123.251 2.027 2.13 3.765 4.189 3.874zm31.499-14.322s-.001 0-.002.001l-6.009 6.009-2.453-2.453 8.857-8.857 4.49-4.49 2.454 2.454-7.337 7.337zm-9.508 7.054.286-1.515 1.229 1.229zm16.912-19.366c.233-.233.611-.233.844 0l1.609 1.61c.233.233.233.611 0 .844l-1.152 1.152-2.454-2.454 1.152-1.152zm-41.17 7.871c.137-1.1 1.243-2.118 2.364-2.177 4.705-.236 9.442-.354 14.179-.354s9.473.118 14.175.354c.487.026.997.247 1.42.597l-8.892 8.893c-.006.006-.009.014-.015.02-.046.048-.083.103-.118.16-.013.022-.031.04-.043.063-.009.018-.015.037-.023.055-.011.025-.017.05-.026.076-.015.044-.035.085-.044.131l-.889 4.712c-.015.079-.02.158-.015.236.014.235.112.459.282.629.082.082.18.142.283.189.021.01.04.02.062.028.102.038.208.061.318.063.008 0 .014.004.022.004.06 0 .12-.006.18-.017l4.712-.889c.046-.009.088-.029.131-.044.026-.009.051-.014.076-.026.019-.008.038-.014.057-.024.02-.01.036-.026.055-.037.06-.036.117-.075.167-.124.004-.004.009-.005.012-.009.002-.002.004-.002.006-.004l5.079-5.079c-.003 2.419-.149 4.84-.434 7.224-.137 1.1-1.243 2.118-2.364 2.178-5.135.257-10.552.368-16.092.332h-.007c-.285 0-.556.126-.74.344l-1.439 1.708c-.865 1.03-1.924 2.301-2.983 3.615-.167-.43-.333-.86-.5-1.289-.409-1.053-.815-2.099-1.204-3.133l-.289-.784c-.136-.369-.482-.62-.875-.634l-1.108-.037c-1.04-.035-2.08-.07-3.117-.122-1.124-.06-2.23-1.078-2.367-2.174-.582-4.864-.582-9.795 0-14.655z"/></svg>