<svg id="Layer_1" height="512" viewBox="0 0 24 24" width="512" xmlns="http://www.w3.org/2000/svg" data-name="Layer 1"><path d="m12 24c-6.617 0-12-5.383-12-12s5.383-12 12-12 12 5.383 12 12-5.383 12-12 12zm0-22c-5.514 0-10 4.486-10 10s4.486 10 10 10 10-4.486 10-10-4.486-10-10-10zm4 14h-5.457c.376-.335.936-.669 1.634-1.072 1.703-.983 3.823-2.207 3.823-4.928 0-2.206-1.794-4-4-4s-4 1.794-4 4h2c0-1.103.897-2 2-2s2 .897 2 2c0 1.461-1.066 2.182-2.823 3.196-1.489.859-3.177 1.834-3.177 3.804v1h8z"/></svg>